<svg id="Untitled-Page%201" viewBox="0 0 205 64" version="1.1" xmlns="http://www.w3.org/2000/svg" xmlns:xlink="http://www.w3.org/1999/xlink" xml:space="preserve" x="0px" y="0px">
<g id="Layer%201">
<path d="M 205 36.4099 L 205 34.3257 C 205 23.245 199.1463 17.2884 190.2773 17.2884 C 180.614 17.2884 173.1525 23.721 173.1525 33.7574 C 173.1525 43.8307 180.614 50.265 190.2773 50.265 C 195.347 50.265 199.9825 48.551 203.5847 44.1711 L 198.0528 39.7458 C 196.0808 42.2648 193.4794 44.1711 189.4768 44.1711 C 185.0073 44.1711 181.4051 41.2436 180.8715 36.4099 L 205 36.4099 ZM 180.8715 30.7256 C 181.4718 26.0332 184.4071 22.9726 189.1432 22.9726 C 194.1464 22.9726 197.2149 25.9652 197.281 30.7256 L 180.8715 30.7256 ZM 161.3347 30.7 C 161.952 28.187 163.9088 24.5786 169.519 24.5786 C 170.7624 24.5786 172.0055 24.8427 173.3142 25.1726 L 173.3142 17.616 C 172.3982 17.4483 171.482 17.2556 170.5005 17.2556 C 166.3781 17.2556 162.9101 19.3754 161.2089 22.9084 L 161.078 22.9084 L 161.078 18.0913 L 153.359 18.0913 L 153.36 30.7 L 161.3347 30.7 ZM 153.359 49.5195 L 161.078 49.5195 L 161.0791 36.4355 L 153.36 36.4355 L 153.359 49.5195 ZM 141.4081 36.4355 C 140.4075 40.2912 137.2284 43.3681 132.5175 43.3681 C 127.8066 43.3681 124.6294 40.2912 123.6287 36.4355 L 115.7542 36.4355 C 116.9527 44.9444 123.9 50.2814 132.5175 50.2814 C 141.1347 50.2814 148.0822 44.9444 149.2805 36.4355 L 141.4081 36.4355 ZM 123.7432 30.7 C 124.8571 27.0383 127.9746 24.177 132.5175 24.177 C 137.0605 24.177 140.1778 27.0383 141.2916 30.7 L 149.2172 30.7 C 147.8565 22.4299 140.9956 17.2638 132.5175 17.2638 C 124.0391 17.2638 117.1782 22.4299 115.8176 30.7 L 123.7432 30.7 ZM 111.677 30.7 L 111.6759 0 L 103.957 0 L 103.9579 30.7 L 111.677 30.7 ZM 103.957 49.5195 L 111.6759 49.5195 L 111.677 36.4355 L 103.9579 36.4355 L 103.957 49.5195 ZM 74.4987 30.7 C 75.6265 27.0383 78.7834 24.177 83.3917 24.177 C 88.0002 24.177 91.1625 27.0383 92.2925 30.7 L 100.2589 30.7 C 99.1421 22.8245 93.6559 17.2638 84.985 17.2638 C 80.5373 17.2638 76.3552 18.9281 74.0397 22.6408 L 73.9111 22.6408 L 73.9111 18.0995 L 66.5782 18.0995 L 66.5772 30.7 L 74.4987 30.7 ZM 92.409 36.4355 C 91.394 40.2912 88.1707 43.3681 83.3917 43.3681 C 78.613 43.3681 75.3952 40.2912 74.3822 36.4355 L 66.5772 36.4355 L 66.5782 64.2678 L 74.2973 64.2678 L 74.2973 45.6086 L 74.4965 45.6086 C 76.1561 47.5929 79.3425 50.2814 85.3169 50.2814 C 93.4886 50.2814 99.2666 44.527 100.3038 36.4355 L 92.409 36.4355 ZM 54.7666 30.7 L 64.0638 18.0257 L 55.1378 18.0257 L 48.3618 27.4738 L 42.107 18.0257 L 32.5945 18.0257 L 42.005 30.7 L 54.7666 30.7 ZM 30.8354 49.5195 L 40.0872 49.5195 L 48.2967 38.2342 L 56.4408 49.5195 L 65.9545 49.5195 L 56.2346 36.4355 L 40.5553 36.4355 L 30.8354 49.5195 ZM 31.8475 36.4099 L 31.8475 34.3257 C 31.8475 23.245 25.994 17.2884 17.1248 17.2884 C 7.4615 17.2884 0 23.721 0 33.7574 C 0 43.8307 7.4615 50.265 17.1248 50.265 C 22.1946 50.265 26.8301 48.551 30.4322 44.1711 L 24.9004 39.7458 C 22.9285 42.2648 20.3268 44.1711 16.3243 44.1711 C 11.8551 44.1711 8.2528 41.2436 7.7191 36.4099 L 31.8475 36.4099 ZM 7.7191 30.7256 C 8.3194 26.0332 11.2546 22.9726 15.9908 22.9726 C 20.9939 22.9726 24.0625 25.9652 24.1286 30.7256 L 7.7191 30.7256 Z" fill="#533163"></path>
</g>
</svg>