<?xml version="1.0" encoding="utf-8"?>
<!-- Generator: Adobe Illustrator 25.2.3, SVG Export Plug-In . SVG Version: 6.00 Build 0)  -->
<svg version="1.1" id="Layer_1" xmlns="http://www.w3.org/2000/svg" xmlns:xlink="http://www.w3.org/1999/xlink" x="0px" y="0px"
	 viewBox="0 0 339.9 62.8" style="enable-background:new 0 0 339.9 62.8;" xml:space="preserve">
<style type="text/css">
	.st0{fill:#F26836;}
	.st1{fill:#34485B;}
</style>
<g>
	<g>
		<g id="XMLID_14_">
			<polygon class="st0" points="2.3,45.1 8.7,41.7 28.4,53 47.9,41.7 53.8,45.3 28.4,60.1 			"/>
		</g>
		<g id="XMLID_13_">
			<polygon class="st0" points="2.3,31.7 8.7,28.2 28.1,39.4 47.6,28.2 47.6,22.3 28.4,33.5 2.3,18.4 28.1,3.3 43.8,12.3 37.9,16.1 
				28.1,10.3 14.9,18.4 28.1,26.4 47.6,15.1 53.8,18.4 53.8,31.7 28.4,46.8 			"/>
		</g>
	</g>
	<g id="DIN_x5F_Next_x5F_LT_x5F_Pro_x5F_Light_x0A__4_">
		<path class="st1" d="M71.2,42.8c-0.2-0.2-0.2-0.4,0-0.6l1-1.2c0.2-0.2,0.4-0.2,0.6,0c1.8,1.4,4.7,2.8,7.9,2.8
			c4.4,0,7.1-2.2,7.1-5.6c0-2.7-1.5-4.7-6.6-5.4l-1.2-0.2c-5.4-0.7-8-3.3-8-7.3c0-4.8,3.4-7.7,8.7-7.7c3.1,0,6,0.9,7.9,2.3
			c0.2,0.1,0.2,0.4,0.1,0.6l-0.8,1.2c-0.2,0.2-0.4,0.2-0.6,0.1c-2.2-1.3-4.3-2-6.7-2c-3.9,0-6.2,2.2-6.2,5.4c0,2.8,1.8,4.6,6.5,5.2
			l1.2,0.2c5.6,0.7,8.1,3.3,8.1,7.4c0,4.7-3.3,8-9.7,8C76.7,46,73.1,44.4,71.2,42.8z"/>
		<path class="st1" d="M100.6,18.4c0-0.2,0.2-0.4,0.4-0.4h15.8c0.2,0,0.4,0.2,0.4,0.4v1.4c0,0.2-0.2,0.4-0.4,0.4h-13.9v10.3h12
			c0.2,0,0.4,0.2,0.4,0.4v1.4c0,0.2-0.2,0.4-0.4,0.4h-12v10.7h13.9c0.2,0,0.4,0.2,0.4,0.4v1.4c0,0.2-0.2,0.4-0.4,0.4H101
			c-0.2,0-0.4-0.2-0.4-0.4V18.4z"/>
		<path class="st1" d="M134.3,18.4c0.1-0.2,0.2-0.4,0.5-0.4h1.5c0.3,0,0.4,0.2,0.5,0.4l9.6,26.8c0.1,0.2,0,0.4-0.3,0.4h-1.6
			c-0.3,0-0.5-0.1-0.5-0.4l-2.4-6.8h-12l-2.4,6.8c-0.1,0.3-0.3,0.4-0.5,0.4h-1.6c-0.2,0-0.4-0.2-0.3-0.4L134.3,18.4z M140.7,36.1
			l-5.1-14.4h-0.1l-5.2,14.4H140.7z"/>
		<path class="st1" d="M171.8,45.6c-0.2,0-0.4-0.1-0.5-0.4l-5.8-12h-0.4h-7.3v11.9c0,0.2-0.2,0.4-0.4,0.4h-1.5
			c-0.2,0-0.4-0.2-0.4-0.4V18.4c0-0.2,0.2-0.4,0.4-0.4h9.3c5.2,0,8.4,2.9,8.4,7.6c0,3.8-2.1,6.5-5.6,7.3l6,12.2
			c0.2,0.2,0,0.5-0.2,0.5L171.8,45.6L171.8,45.6z M171.2,25.6c0-3.4-2.2-5.4-6.1-5.4h-7.3V31h7.3C169,31,171.2,29.1,171.2,25.6z"/>
		<path class="st1" d="M183.2,31.8c0-6.2,0.5-7.4,1.2-9.1c1-2.5,3.2-4.4,5.9-4.8c4.9-0.9,8.8,0.8,10.7,4.9c0.1,0.2,0.1,0.4-0.1,0.5
			l-1.3,0.6c-0.2,0.1-0.4,0-0.5-0.2c-1.2-2.3-3.2-3.9-6.3-3.9c-3.4,0-5.4,1.6-6.5,4.6c-0.4,1.1-0.6,2.8-0.6,7.4s0.2,6.3,0.6,7.4
			c1.1,3,3.1,4.6,6.5,4.6c3.1,0,5.1-1.6,6.3-3.9c0.1-0.2,0.3-0.3,0.5-0.2l1.3,0.6c0.2,0.1,0.2,0.3,0.1,0.5c-1.6,3.4-4.5,5.1-8.3,5.1
			c-4.3,0-7.3-2-8.7-6.2C183.5,38.4,183.2,36.6,183.2,31.8z"/>
		<path class="st1" d="M211,18.4c0-0.2,0.2-0.4,0.4-0.4h1.5c0.2,0,0.4,0.2,0.4,0.4v12.1h14.1V18.4c0-0.2,0.2-0.4,0.4-0.4h1.5
			c0.2,0,0.4,0.2,0.4,0.4v26.8c0,0.2-0.2,0.4-0.4,0.4h-1.5c-0.2,0-0.4-0.2-0.4-0.4V32.6h-14.1v12.5c0,0.2-0.2,0.4-0.4,0.4h-1.5
			c-0.2,0-0.4-0.2-0.4-0.4L211,18.4L211,18.4z"/>
		<path class="st1" d="M240.3,42.8c-0.2-0.2-0.2-0.4,0-0.6l1-1.2c0.2-0.2,0.4-0.2,0.6,0c1.8,1.4,4.7,2.8,7.9,2.8
			c4.4,0,7.1-2.2,7.1-5.6c0-2.7-1.5-4.7-6.6-5.4l-1.2-0.2c-5.4-0.7-8-3.3-8-7.3c0-4.8,3.4-7.7,8.7-7.7c3.1,0,6,0.9,7.9,2.3
			c0.2,0.1,0.2,0.4,0.1,0.6l-0.8,1.2c-0.2,0.2-0.4,0.2-0.6,0.1c-2.2-1.3-4.3-2-6.7-2c-3.9,0-6.2,2.2-6.2,5.4c0,2.8,1.8,4.6,6.5,5.2
			l1.2,0.2c5.6,0.7,8.1,3.3,8.1,7.4c0,4.7-3.3,8-9.7,8C245.8,46,242.2,44.4,240.3,42.8z"/>
		<path class="st1" d="M275.3,45.6c-0.2,0-0.4-0.2-0.4-0.4v-25h-8.2c-0.2,0-0.4-0.2-0.4-0.4v-1.4c0-0.2,0.2-0.4,0.4-0.4h18.7
			c0.2,0,0.4,0.2,0.4,0.4v1.4c0,0.2-0.2,0.4-0.4,0.4h-8.2v25c0,0.2-0.2,0.4-0.4,0.4L275.3,45.6L275.3,45.6z"/>
		<path class="st1" d="M298.7,18.4c0.1-0.2,0.2-0.4,0.5-0.4h1.5c0.3,0,0.4,0.2,0.5,0.4l9.6,26.8c0.1,0.2,0,0.4-0.3,0.4h-1.6
			c-0.3,0-0.5-0.1-0.5-0.4l-2.4-6.8h-12l-2.4,6.8c-0.1,0.3-0.3,0.4-0.5,0.4h-1.6c-0.2,0-0.4-0.2-0.3-0.4L298.7,18.4z M305.1,36.1
			L300,21.7h-0.1l-5.2,14.4H305.1z"/>
		<path class="st1" d="M334.7,45.6c-0.3,0-0.4-0.1-0.5-0.4l-7.1-11.8h0l-7.1,11.8c-0.1,0.2-0.3,0.4-0.5,0.4h-1.8
			c-0.2,0-0.3-0.2-0.2-0.5l8.4-14l-7.6-12.7c-0.2-0.2,0-0.5,0.2-0.5h1.8c0.3,0,0.4,0.1,0.5,0.4l6.3,10.4h0l6.3-10.4
			c0.2-0.2,0.3-0.4,0.5-0.4h1.8c0.2,0,0.3,0.2,0.2,0.5l-7.6,12.7l8.5,14c0.1,0.2,0,0.5-0.2,0.5L334.7,45.6L334.7,45.6z"/>
	</g>
</g>
</svg>
