<svg width="145" height="14" viewBox="0 0 145 14" fill="none" xmlns="http://www.w3.org/2000/svg">
<path d="M96.6085 0.0131836L88.8708 13.0233H86.788L79.4062 0.0131836H81.4758L87.8558 11.1159L94.5126 0.0131836H96.6085Z" fill="#000417"/>
<path d="M12.4172 13.0102C3.73045 13.0102 0 10.616 0 5.72238V0.0131836H1.74V5.80131C1.74 10.4055 7.28953 11.2869 12.4172 11.2869H13.0236V0.0131836H14.7636V13.0233H12.4172V13.0102Z" fill="#000417"/>
<path d="M40.0988 13.0102L28.8416 2.17058V13.0102H27.1016V0.0131836H28.8811L40.1383 10.8396V0.0131836H41.8783V13.0102H40.0988Z" fill="#000417"/>
<path d="M107.299 13.0102V0.0131836H109.026V11.2737H120.322V13.0102H107.299Z" fill="#000417"/>
<path d="M64.6554 7.81397H65.8418C68.0431 7.81397 69.8358 6.06438 69.8358 3.90698C69.8358 1.74959 68.0299 0 65.8286 0C65.8022 0 54.8086 0 54.8086 0V13.0101H56.5486V7.81397H62.454L67.8454 13.0101H70.1654L64.6554 7.81397ZM56.5618 6.07753V1.73644H65.7758C66.9622 1.73644 68.0827 2.72305 68.109 3.90698C68.1354 5.13038 67.0413 6.07753 65.8154 6.07753H56.5618Z" fill="#000417"/>
<path d="M138.489 0.0131836H129.895V13.0233H138.489C142.219 13.0233 145.001 10.0766 145.001 6.52482C145.001 3.39397 142.312 0.0131836 138.489 0.0131836ZM138.423 11.2737H131.621V1.73647H138.489C141.205 1.73647 143.261 3.85439 143.261 6.5906C143.261 9.15579 140.994 11.2737 138.423 11.2737Z" fill="#000417"/>
</svg>
