<svg height="512pt" viewBox="0 0 512 512" width="512pt" xmlns="http://www.w3.org/2000/svg" xmlns:xlink="http://www.w3.org/1999/xlink"><linearGradient id="a" gradientUnits="userSpaceOnUse" x1="0" x2="512" y1="256" y2="256"><stop offset="0" stop-color="#00f38d"/><stop offset="1" stop-color="#009eff"/></linearGradient><path d="m512 256c0 141.386719-114.613281 256-256 256s-256-114.613281-256-256 114.613281-256 256-256 256 114.613281 256 256zm0 0" fill="url(#a)"/><g fill="#fff"><path d="m128.332031 328.472656c-7.144531 0-12.953125-5.8125-12.953125-12.953125v-155.316406l139.898438 104.058594 139.902344-104.058594v68.960937l25.90625-28.917968v-50.535156c0-21.429688-17.433594-38.859376-38.859376-38.859376h-253.894531c-21.429687 0-38.863281 17.429688-38.863281 38.859376v165.808593c0 21.425781 17.433594 38.859375 38.863281 38.859375h101.246094l-27.21875-25.90625zm5.789063-191.714844h242.3125l-121.15625 90.117188zm0 0"/><path d="m400.210938 259.511719-88.574219 98.617187-49.253907-46.886718-20.6875 21.734374 71.625 68.175782 109.210938-121.59375zm0 0"/></g></svg>