<svg width="224" height="224" xmlns="http://www.w3.org/2000/svg">
 <metadata id="metadata8">image/svg+xml</metadata>
 <defs>
  <clipPath clipPathUnits="userSpaceOnUse" id="clipPath18">
   <path d="m-305.625,773.99999l792,0l0,-612l-792,0l0,612z" id="path16"/>
  </clipPath>
 </defs>
 <g>
  <title>Sitecore</title>
  <rect fill="none" id="canvas_background" height="226" width="226" y="-1" x="-1"/>
 </g>
 <g>
  <title>Layer 1</title>
  <g transform="matrix(1.3333333,0,0,-1.3333333,0,816) " id="g10">
   <g id="g12">
    <g id="g14" clip-path="url(#clipPath18)">
     <g id="g20">
      <path fill="#e4413a" fill-rule="nonzero" d="m84.99121,467.6426c-33.437,0 -60.542,27.256 -60.542,60.879c0,33.623 27.105,60.879 60.542,60.879c33.436,0 60.542,-27.256 60.542,-60.879c0,-33.623 -27.106,-60.879 -60.542,-60.879m-0.809,143.669c-45.727,0 -82.799,-37.277 -82.799,-83.26c0,-45.984 37.072,-83.26 82.799,-83.26c45.729,0 82.799,37.276 82.799,83.26c0,45.983 -37.07,83.26 -82.799,83.26" id="path22"/>
     </g>
     <g id="g24">
      <path fill="#e4413a" fill-rule="nonzero" d="m28.82941,513.05959c0,0 9.918,-38.747 48.664,-42.898c38.748,-4.151 58.122,29.521 58.122,29.521l-10.379,6.458c0,0 -16.146,-27.215 -44.974,-26.292c-28.831,0.922 -43.36,18.219 -51.433,33.211" id="path26"/>
     </g>
     <g id="g28">
      <path fill="#e4413a" fill-rule="nonzero" d="m49.22299,491.16869c8.733,-6.204 19.036,-9.48 31.085,-9.866c27.607,-0.883 43.52,25.317 43.676,25.58l0.76,1.279l1.262,-0.785l9.716,-6.046c8.923,14.664 6.788,31.083 6.788,31.083l-17.966,-0.211c0,0 1.385,-26.524 -30.443,-41.514c-13.256,-6.244 -35.514,-5.225 -48.896,5.304c0,0 1.171,-2.097 4.018,-4.824" id="path30"/>
     </g>
     <g id="g32">
      <path fill="#e4413a" fill-rule="nonzero" d="m121.89371,533.5952l-0.078,1.514l1.515,0.017l18.911,0.196c-0.843,14.657 -11.931,27.555 -11.931,27.555l-21.219,-13.146c0,0 13.508,-10.098 1.278,-33.963c-4.254,-8.301 -13.407,-17.265 -21.809,-21.203c-10.275,-4.814 -18.171,-5.061 -18.171,-5.061c1.038,-0.413 10.973,-2.392 24.908,3.799c27.489,12.211 26.647,39.249 26.596,40.292" id="path34"/>
     </g>
    </g>
   </g>
  </g>
 </g>
</svg>