<svg xmlns="http://www.w3.org/2000/svg" viewBox="0 0 130 16">
<path fill="#2C3D59" d="M74.4904098,0 C78.8964446,0 82.4808195,3.5888 82.4808195,8 C82.4808195,12.4112 78.8964446,16 74.4904098,16 C70.0843749,16 66.5,12.4112 66.5,8 C66.5,3.5888 70.0843749,0 74.4904098,0 Z M97.4904098,0 C101.896445,0 105.48082,3.5888 105.48082,8 C105.48082,12.4112 101.896445,16 97.4904098,16 C93.0843749,16 89.5,12.4112 89.5,8 C89.5,3.5888 93.0843749,0 97.4904098,0 Z M50.9904098,0 C53.4899329,0 55.8794342,1.19569231 57.3821229,3.19852308 L57.3821229,3.19852308 L54.2368518,5.56406154 C53.461782,4.53095385 52.2785867,3.93846154 50.9904098,3.93846154 C48.7535867,3.93846154 46.9337402,5.76049231 46.9337402,8 C46.9337402,10.2395077 48.7535867,12.0615385 50.9904098,12.0615385 C52.3035414,12.0615385 53.472231,11.4332308 54.2142328,10.4615385 L54.2142328,10.4615385 L51.9738448,10.4615385 L51.9738448,7.50769231 L58.3661726,7.50769231 L58.3661726,15.8769231 L55.4158675,15.8769231 L55.1531674,14.8247385 C53.9398544,15.5693538 52.5146112,16 50.9904098,16 C46.5844978,16 43,12.4112 43,8 C43,3.5888 46.5844978,0 50.9904098,0 Z M30.8343505,-2.57571742e-14 L36.7349608,15.7538462 L32.8012206,15.7538462 L32.0636443,13.7846154 L25.6713165,13.7846154 L24.9337402,15.7538462 L21,15.7538462 L26.9006103,-2.57571742e-14 L30.8343505,-2.57571742e-14 Z M3.93054403,-2.57571742e-14 L3.93054403,5.90769231 L5.40889276,5.90769231 L10.8177855,-2.57571742e-14 L15.7349608,-2.57571742e-14 L8.65422842,7.87692308 L15.7349608,15.7538462 L10.8177855,15.7538462 L5.40889276,9.84615385 L5.41036792,9.84196923 L3.93054403,9.83556923 L3.93054403,15.7538462 L-3.41060513e-13,15.7538462 L-3.41060513e-13,-2.57571742e-14 L3.93054403,-2.57571742e-14 Z M117.43374,-2.57571742e-14 L117.43374,11.8153846 L124.317786,11.8153846 L124.317786,15.7538462 L113.5,15.7538462 L113.5,-2.57571742e-14 L117.43374,-2.57571742e-14 Z M74.4904098,3.93846154 C72.2535867,3.93846154 70.4337402,5.76049231 70.4337402,8 C70.4337402,10.2395077 72.2535867,12.0615385 74.4904098,12.0615385 C76.7272328,12.0615385 78.5470793,10.2395077 78.5470793,8 C78.5470793,5.76049231 76.7272328,3.93846154 74.4904098,3.93846154 Z M97.4904098,3.93846154 C95.2535867,3.93846154 93.4337402,5.76049231 93.4337402,8 C93.4337402,10.2395077 95.2535867,12.0615385 97.4904098,12.0615385 C99.7272328,12.0615385 101.547079,10.2395077 101.547079,8 C101.547079,5.76049231 99.7272328,3.93846154 97.4904098,3.93846154 Z M28.8674804,5.25132308 L27.146469,9.84615385 L30.5884917,9.84615385 L28.8674804,5.25132308 Z M129.234838,0.000123076923 L129.234838,3.93846154 L125.301221,3.93846154 L125.301221,0.000123076923 L129.234838,0.000123076923 Z"></path>
</svg>