<svg version="1.1" xmlns="http://www.w3.org/2000/svg" xmlns:xlink="http://www.w3.org/1999/xlink" x="0px" y="0px" width="221px" height="54.5px" viewBox="0 0 221 54.5" enable-background="new 0 0 221 54.5"><g id="Symbols"><g id="_x30_5.-Components-_x2F_-Header" transform="translate(-59.000000, -59.000000)"><g id="_x30_1-Branding-_x2F_-Sitecore-Logo" transform="translate(59.000000, 59.000000)"><g id="Group"><g id="Fill-1"><path d="M76.059,14.82c-0.868-0.8-1.879-1.405-3.033-1.814c-1.154-0.409-2.286-0.614-3.393-0.614
 c-0.924,0-1.838,0.117-2.743,0.349c-0.906,0.233-1.718,0.6-2.438,1.103c-0.72,0.503-1.302,1.145-1.745,1.926
 c-0.443,0.782-0.665,1.722-0.665,2.82c0,0.893,0.142,1.652,0.429,2.275c0.286,0.624,0.665,1.154,1.136,1.591
 c0.471,0.438,1.006,0.796,1.606,1.074c0.6,0.279,1.214,0.521,1.842,0.726c0.646,0.206,1.223,0.396,1.731,0.572
 c0.508,0.178,0.932,0.373,1.274,0.586c0.342,0.215,0.605,0.452,0.79,0.713c0.184,0.26,0.276,0.576,0.276,0.949
 c0,0.391-0.074,0.725-0.221,1.004c-0.148,0.279-0.346,0.503-0.595,0.67c-0.25,0.168-0.541,0.289-0.873,0.363
 s-0.674,0.111-1.025,0.111c-0.776,0-1.556-0.199-2.341-0.601c-0.786-0.399-1.417-0.898-1.897-1.494l-3.103,3.185
 c0.868,0.912,1.957,1.615,3.269,2.106c1.312,0.492,2.668,0.74,4.072,0.74c0.96,0,1.893-0.132,2.798-0.392
 c0.905-0.262,1.708-0.66,2.41-1.201c0.702-0.539,1.26-1.223,1.676-2.051c0.415-0.828,0.623-1.811,0.623-2.946
 c0-0.986-0.194-1.81-0.582-2.47c-0.388-0.661-0.877-1.215-1.468-1.662c-0.591-0.447-1.247-0.805-1.967-1.075
 c-0.72-0.27-1.413-0.517-2.078-0.74c-0.462-0.148-0.877-0.293-1.246-0.433c-0.37-0.14-0.688-0.293-0.956-0.46
 s-0.471-0.363-0.609-0.586c-0.138-0.223-0.208-0.502-0.208-0.837c0-0.391,0.088-0.712,0.264-0.963
 c0.175-0.251,0.392-0.456,0.651-0.614c0.258-0.158,0.549-0.266,0.873-0.321c0.323-0.056,0.641-0.083,0.956-0.083
 c0.609,0,1.242,0.153,1.897,0.46c0.655,0.307,1.187,0.721,1.593,1.243L76.059,14.82z M81.82,32.659h4.765V12.894H81.82V32.659z
 M107.611,16.969v-4.075H91.793v4.075h5.541v15.69h4.736v-15.69H107.611z M126.504,32.659v-4.076h-9.113v-4.104h8.144v-3.825
 h-8.144v-3.741h8.614v-4.02h-13.187v19.765L126.504,32.659L126.504,32.659z M149.107,29.924l-3.297-3.127
 c-0.424,0.596-0.988,1.079-1.689,1.451c-0.701,0.373-1.523,0.559-2.465,0.559c-0.813,0-1.563-0.147-2.244-0.447
 c-0.684-0.297-1.27-0.71-1.76-1.241c-0.489-0.529-0.873-1.168-1.148-1.912c-0.277-0.744-0.416-1.563-0.416-2.457
 c0-0.875,0.139-1.68,0.416-2.415c0.275-0.734,0.664-1.372,1.163-1.912s1.095-0.963,1.786-1.271
 c0.693-0.307,1.455-0.46,2.285-0.46c0.758,0,1.496,0.149,2.217,0.446c0.721,0.298,1.302,0.754,1.745,1.368l3.214-3.238
 c-0.831-0.95-1.916-1.671-3.256-2.164c-1.338-0.493-2.7-0.74-4.086-0.74c-1.496,0-2.891,0.242-4.182,0.726
 c-1.295,0.484-2.42,1.177-3.382,2.08c-0.96,0.903-1.713,1.997-2.258,3.28c-0.544,1.284-0.817,2.718-0.817,4.299
 c0,1.545,0.27,2.958,0.805,4.244c0.535,1.283,1.273,2.387,2.217,3.309c0.941,0.922,2.055,1.633,3.338,2.135
 s2.684,0.754,4.197,0.754c1.662,0,3.13-0.293,4.404-0.879C147.168,31.725,148.238,30.928,149.107,29.924L149.107,29.924z
 M172.516,18.408c-0.535-1.275-1.279-2.359-2.229-3.253c-0.951-0.893-2.082-1.581-3.394-2.065s-2.732-0.726-4.267-0.726
 c-1.532,0-2.95,0.242-4.252,0.726c-1.304,0.484-2.429,1.172-3.38,2.065c-0.951,0.894-1.695,1.978-2.23,3.253
 c-0.535,1.274-0.803,2.703-0.803,4.285c0,1.563,0.268,2.993,0.803,4.286c0.535,1.292,1.279,2.4,2.23,3.322
 s2.076,1.633,3.38,2.135c1.302,0.502,2.72,0.754,4.252,0.754c1.533,0,2.955-0.252,4.267-0.754s2.441-1.213,3.394-2.135
 c0.95-0.922,1.694-2.029,2.229-3.322c0.535-1.293,0.805-2.723,0.805-4.286C173.318,21.111,173.051,19.682,172.516,18.408
 L172.516,18.408z M167.834,25.164c-0.277,0.754-0.664,1.4-1.163,1.939c-0.499,0.541-1.09,0.963-1.772,1.27
 c-0.685,0.309-1.44,0.461-2.271,0.461s-1.588-0.152-2.271-0.461c-0.683-0.307-1.27-0.729-1.758-1.27
 c-0.49-0.539-0.873-1.186-1.15-1.939c-0.277-0.754-0.416-1.578-0.416-2.472c0-0.856,0.135-1.656,0.402-2.4
 c0.267-0.744,0.649-1.382,1.149-1.913c0.498-0.53,1.09-0.949,1.772-1.256c0.684-0.307,1.439-0.46,2.271-0.46
 s1.593,0.154,2.286,0.46c0.691,0.307,1.283,0.726,1.771,1.256c0.488,0.531,0.873,1.168,1.149,1.913s0.416,1.544,0.416,2.4
 C168.25,23.586,168.111,24.41,167.834,25.164L167.834,25.164z M194.566,32.659l-5.125-8.459
 c1.273-0.391,2.271-1.042,2.992-1.954c0.719-0.912,1.08-2.038,1.08-3.378c0-1.135-0.214-2.084-0.639-2.847
 s-0.992-1.377-1.703-1.843c-0.712-0.464-1.516-0.795-2.41-0.991c-0.896-0.196-1.814-0.293-2.757-0.293h-7.479v19.765h4.627
 v-7.845h1.613l4.258,7.845H194.566z M188.512,20.18c-0.214,0.317-0.486,0.558-0.82,0.726c-0.336,0.168-0.705,0.284-1.113,0.349
 c-0.409,0.065-0.809,0.098-1.197,0.098h-2.255v-4.606h2.533c0.353,0,0.719,0.027,1.1,0.084c0.382,0.056,0.726,0.162,1.03,0.32
 c0.305,0.158,0.557,0.382,0.751,0.67c0.194,0.289,0.293,0.666,0.293,1.131C188.832,19.455,188.725,19.864,188.512,20.18
 L188.512,20.18z M213.209,32.659v-4.076h-9.113v-4.104h8.145v-3.825h-8.145v-3.741h8.615v-4.02h-13.186v19.765L213.209,32.659
 L213.209,32.659z"></path></g><g id="Circle"><g id="Fill-3"><path fill="#EE3524" d="M22.614,34.883c1.857-0.24,3.65-0.809,5.275-1.719c4.014-2.252,6.333-6.12,6.528-10.895l0.017-0.414
 h5.555c-0.35-2.832-1.415-5.442-3.004-7.645l-5.683,3.676c1.729,2.731,1.952,5.758,0.639,8.783
 C30.386,30.252,26.721,33.391,22.614,34.883"></path></g><g id="Fill-5"><path fill="#EE3524" d="M40.074,22.718H35.25c-0.325,4.831-2.84,8.897-6.945,11.198c-2.343,1.314-5.01,1.969-7.733,1.969
 c-2.11,0-4.254-0.395-6.308-1.176c2.469,1.553,5.243,2.4,8.116,2.41h0.044c5.189,0,9.847-2.768,12.467-7.406l0.222-0.393
 l3.228,2.062c1.135-2.245,1.779-4.783,1.779-7.471C40.121,23.509,40.102,23.112,40.074,22.718"></path></g><g id="Fill-7"><path fill="#EE3524" d="M22.425,37.98h-0.046c-5.17-0.017-10.028-2.596-13.485-7.035c2.627,5.602,8.287,9.488,14.832,9.488
 c6.068,0,11.373-3.343,14.208-8.293l-2.524-1.611C32.597,35.205,27.778,37.98,22.425,37.98"></path></g><g id="Fill-9"><path fill="#EE3524" d="M23.726,0C10.622,0,0,10.705,0,23.91s10.622,23.91,23.726,23.91s23.726-10.705,23.726-23.91
 S36.829,0,23.726,0 M23.726,41.296c-9.528,0-17.251-7.784-17.251-17.386c0-9.601,7.724-17.385,17.251-17.385
 s17.251,7.784,17.251,17.385C40.977,33.512,33.253,41.296,23.726,41.296"></path></g></g><g id="Fill-11"><path fill="#231F20" d="M216.877,15.656c0.104,0.235,0.242,0.44,0.418,0.615c0.176,0.174,0.383,0.312,0.619,0.412
 c0.234,0.1,0.486,0.15,0.754,0.15s0.52-0.05,0.754-0.15c0.236-0.1,0.441-0.238,0.619-0.412c0.176-0.175,0.314-0.38,0.418-0.615
 c0.102-0.234,0.152-0.486,0.152-0.756s-0.053-0.522-0.152-0.76c-0.104-0.238-0.242-0.444-0.418-0.619
 c-0.178-0.175-0.383-0.313-0.619-0.417c-0.234-0.103-0.486-0.154-0.754-0.154s-0.52,0.052-0.754,0.154
 c-0.236,0.104-0.443,0.242-0.619,0.417s-0.314,0.381-0.418,0.619c-0.104,0.238-0.152,0.491-0.152,0.76
 S216.773,15.421,216.877,15.656L216.877,15.656z M217.159,14.255c0.085-0.2,0.2-0.375,0.349-0.523
 c0.148-0.149,0.321-0.267,0.52-0.353c0.199-0.086,0.412-0.129,0.642-0.129c0.228,0,0.438,0.043,0.64,0.129
 c0.199,0.086,0.373,0.203,0.52,0.353c0.148,0.148,0.266,0.323,0.352,0.523c0.084,0.201,0.127,0.416,0.127,0.645
 c0,0.224-0.043,0.436-0.127,0.636c-0.086,0.2-0.203,0.377-0.352,0.528c-0.146,0.152-0.32,0.271-0.52,0.356
 c-0.201,0.085-0.412,0.129-0.64,0.129c-0.229,0-0.44-0.043-0.642-0.129c-0.197-0.086-0.371-0.204-0.52-0.356
 c-0.146-0.151-0.264-0.328-0.349-0.528c-0.087-0.2-0.13-0.412-0.13-0.636C217.029,14.671,217.072,14.456,217.159,14.255
 L217.159,14.255z M217.908,15.991h0.393v-0.919h0.281l0.512,0.919h0.479l-0.588-0.962c0.152-0.034,0.275-0.102,0.365-0.202
 c0.092-0.1,0.137-0.23,0.137-0.391c0-0.12-0.022-0.221-0.067-0.301c-0.046-0.08-0.106-0.146-0.185-0.198
 c-0.075-0.051-0.164-0.088-0.26-0.112c-0.098-0.022-0.195-0.034-0.299-0.034h-0.768V15.991z M218.301,14.754v-0.628h0.358
 c0.103,0,0.2,0.021,0.294,0.061s0.141,0.12,0.141,0.24c0,0.132-0.051,0.219-0.152,0.262c-0.104,0.043-0.211,0.065-0.324,0.065
 H218.301z"></path></g></g></g></g></g><g><path stroke="#000000" stroke-width="0.3" stroke-miterlimit="10" d="M116.973,47.028c0.526,0,0.997-0.093,1.412-0.275
 c0.418-0.184,0.771-0.437,1.061-0.764c0.289-0.324,0.51-0.709,0.662-1.148c0.153-0.446,0.229-0.922,0.229-1.432v-6.781h0.792v6.781
 c0,0.604-0.097,1.169-0.289,1.694c-0.191,0.522-0.466,0.981-0.825,1.369c-0.359,0.391-0.794,0.698-1.308,0.922
 c-0.515,0.221-1.094,0.331-1.733,0.331c-0.641,0-1.22-0.11-1.731-0.331c-0.516-0.224-0.951-0.531-1.31-0.922
 c-0.361-0.388-0.635-0.847-0.825-1.369c-0.192-0.525-0.288-1.09-0.288-1.694v-6.781h0.799v6.774c0,0.51,0.076,0.986,0.228,1.43
 c0.151,0.441,0.374,0.826,0.66,1.15c0.286,0.325,0.638,0.58,1.053,0.768C115.974,46.936,116.443,47.028,116.973,47.028z"></path><path stroke="#000000" stroke-width="0.3" stroke-miterlimit="10" d="M128.163,40.845c-0.035,0.071-0.094,0.107-0.171,0.107
 c-0.057,0-0.131-0.031-0.221-0.097c-0.091-0.063-0.209-0.136-0.356-0.216c-0.146-0.08-0.329-0.154-0.541-0.218
 c-0.214-0.065-0.479-0.097-0.787-0.097c-0.279,0-0.535,0.04-0.765,0.12s-0.425,0.188-0.589,0.32c-0.164,0.134-0.29,0.29-0.38,0.467
 c-0.09,0.179-0.135,0.366-0.135,0.56c0,0.243,0.061,0.445,0.186,0.603c0.124,0.162,0.286,0.299,0.487,0.412
 c0.202,0.113,0.431,0.21,0.686,0.294c0.257,0.081,0.518,0.165,0.788,0.246c0.268,0.084,0.531,0.176,0.784,0.275
 c0.259,0.102,0.485,0.227,0.688,0.376c0.201,0.15,0.363,0.333,0.487,0.551c0.124,0.217,0.187,0.48,0.187,0.792
 c0,0.335-0.063,0.646-0.183,0.936c-0.12,0.29-0.296,0.542-0.527,0.752c-0.229,0.213-0.513,0.38-0.848,0.504
 c-0.337,0.124-0.718,0.188-1.146,0.188c-0.544,0-1.01-0.088-1.403-0.262c-0.393-0.174-0.744-0.397-1.053-0.677l0.177-0.266
 c0.025-0.04,0.056-0.072,0.086-0.094c0.029-0.021,0.075-0.029,0.132-0.029c0.065,0,0.148,0.04,0.248,0.123
 c0.099,0.082,0.227,0.175,0.384,0.27c0.155,0.096,0.354,0.184,0.588,0.266c0.235,0.084,0.524,0.125,0.872,0.125
 c0.325,0,0.612-0.046,0.861-0.136c0.246-0.091,0.453-0.212,0.619-0.369c0.165-0.155,0.29-0.337,0.375-0.545
 c0.086-0.21,0.127-0.43,0.127-0.663c0-0.258-0.061-0.473-0.186-0.643c-0.123-0.17-0.284-0.316-0.488-0.437
 c-0.201-0.118-0.429-0.218-0.685-0.3c-0.256-0.085-0.52-0.166-0.79-0.25c-0.271-0.081-0.536-0.172-0.792-0.27
 c-0.255-0.1-0.484-0.223-0.684-0.372c-0.202-0.148-0.366-0.331-0.489-0.544c-0.123-0.217-0.186-0.484-0.186-0.806
 c0-0.271,0.06-0.535,0.177-0.788c0.12-0.255,0.289-0.477,0.509-0.668c0.219-0.189,0.488-0.343,0.802-0.457
 c0.316-0.113,0.669-0.17,1.062-0.17c0.47,0,0.886,0.066,1.253,0.203c0.363,0.138,0.698,0.346,1.002,0.626L128.163,40.845z"></path><path stroke="#000000" stroke-width="0.3" stroke-miterlimit="10" d="M133.486,39.76c0.434,0,0.837,0.074,1.205,0.225
 c0.371,0.15,0.69,0.367,0.961,0.655c0.272,0.287,0.483,0.638,0.637,1.056c0.151,0.42,0.228,0.9,0.228,1.441
 c0,0.114-0.018,0.192-0.052,0.233c-0.03,0.041-0.085,0.064-0.155,0.064h-5.564v0.145c0,0.579,0.066,1.09,0.2,1.529
 c0.133,0.438,0.325,0.804,0.574,1.103c0.247,0.295,0.547,0.521,0.897,0.67c0.353,0.148,0.744,0.225,1.18,0.225
 c0.387,0,0.721-0.042,1.006-0.128c0.284-0.085,0.522-0.179,0.719-0.285c0.192-0.108,0.346-0.204,0.459-0.288
 c0.114-0.086,0.197-0.128,0.251-0.128c0.066,0,0.117,0.027,0.153,0.077l0.201,0.249c-0.123,0.155-0.288,0.298-0.493,0.436
 c-0.205,0.133-0.43,0.246-0.682,0.343c-0.25,0.097-0.52,0.175-0.807,0.229c-0.285,0.057-0.573,0.085-0.863,0.085
 c-0.526,0-1.008-0.091-1.44-0.274c-0.436-0.184-0.806-0.452-1.117-0.802c-0.312-0.353-0.552-0.784-0.722-1.293
 c-0.17-0.508-0.256-1.091-0.256-1.747c0-0.551,0.08-1.062,0.237-1.528c0.159-0.469,0.387-0.873,0.684-1.211
 c0.295-0.338,0.659-0.603,1.091-0.794C132.448,39.854,132.938,39.76,133.486,39.76z M133.5,40.311c-0.399,0-0.754,0.062-1.07,0.186
 c-0.313,0.125-0.586,0.302-0.816,0.535c-0.229,0.23-0.414,0.511-0.557,0.837c-0.141,0.325-0.234,0.688-0.281,1.092h5.075
 c0-0.414-0.056-0.782-0.17-1.113c-0.113-0.325-0.272-0.605-0.48-0.832c-0.206-0.227-0.455-0.401-0.744-0.521
 C134.169,40.369,133.849,40.311,133.5,40.311z"></path><path stroke="#000000" stroke-width="0.3" stroke-miterlimit="10" d="M138.501,47.596v-7.713h0.389c0.086,0,0.148,0.02,0.189,0.055
 c0.037,0.037,0.059,0.1,0.064,0.187l0.061,1.627c0.252-0.626,0.582-1.115,0.995-1.468c0.412-0.354,0.921-0.533,1.524-0.533
 c0.234,0,0.448,0.025,0.645,0.074c0.195,0.049,0.381,0.122,0.558,0.215l-0.099,0.511c-0.016,0.084-0.068,0.125-0.157,0.125
 c-0.03,0-0.075-0.011-0.132-0.031c-0.057-0.02-0.126-0.045-0.213-0.07c-0.086-0.025-0.189-0.048-0.313-0.071
 c-0.125-0.021-0.268-0.031-0.427-0.031c-0.583,0-1.062,0.185-1.437,0.544c-0.377,0.36-0.68,0.883-0.912,1.566v5.015H138.501z"></path><path stroke="#000000" stroke-width="0.3" stroke-miterlimit="10" d="M152.731,47.076c0.376,0,0.72-0.021,1.028-0.06
 c0.311-0.039,0.6-0.097,0.866-0.173c0.267-0.079,0.519-0.174,0.76-0.283c0.24-0.112,0.48-0.237,0.724-0.377V43.23h-2.106
 c-0.058,0-0.106-0.017-0.146-0.054c-0.038-0.036-0.056-0.076-0.056-0.122V42.62h3.028v3.896c-0.272,0.192-0.557,0.363-0.851,0.513
 c-0.296,0.151-0.612,0.276-0.946,0.375c-0.337,0.102-0.699,0.18-1.085,0.236c-0.389,0.052-0.812,0.08-1.271,0.08
 c-0.791,0-1.513-0.133-2.165-0.402c-0.653-0.264-1.215-0.642-1.682-1.13s-0.832-1.079-1.091-1.771
 c-0.257-0.691-0.385-1.462-0.385-2.307c0-0.851,0.128-1.616,0.385-2.311c0.259-0.688,0.628-1.275,1.103-1.764
 c0.474-0.488,1.052-0.867,1.73-1.133s1.439-0.398,2.284-0.398c0.416,0,0.806,0.029,1.158,0.086
 c0.354,0.057,0.682,0.141,0.988,0.252c0.303,0.109,0.589,0.247,0.852,0.409c0.264,0.165,0.518,0.352,0.76,0.563l-0.209,0.34
 c-0.047,0.08-0.11,0.116-0.193,0.116c-0.047,0-0.092-0.009-0.133-0.03c-0.077-0.03-0.191-0.103-0.338-0.215
 c-0.145-0.114-0.346-0.233-0.596-0.356c-0.25-0.125-0.563-0.238-0.94-0.336c-0.378-0.098-0.836-0.146-1.372-0.146
 c-0.713,0-1.357,0.114-1.93,0.344c-0.574,0.224-1.064,0.552-1.468,0.974c-0.407,0.424-0.72,0.94-0.939,1.551
 s-0.329,1.295-0.329,2.056c0,0.774,0.111,1.468,0.333,2.084c0.223,0.615,0.532,1.133,0.936,1.56c0.399,0.428,0.88,0.753,1.441,0.98
 C151.438,46.963,152.053,47.076,152.731,47.076z"></path><path stroke="#000000" stroke-width="0.3" stroke-miterlimit="10" d="M159.247,47.596v-7.713h0.389c0.088,0,0.149,0.02,0.189,0.055
 c0.038,0.037,0.06,0.1,0.065,0.187l0.063,1.627c0.246-0.626,0.579-1.115,0.993-1.468c0.413-0.354,0.92-0.533,1.525-0.533
 c0.232,0,0.445,0.025,0.644,0.074c0.197,0.049,0.381,0.122,0.557,0.215l-0.099,0.511c-0.016,0.084-0.068,0.125-0.157,0.125
 c-0.03,0-0.074-0.011-0.131-0.031c-0.057-0.02-0.127-0.045-0.213-0.07c-0.085-0.025-0.19-0.048-0.315-0.071
 c-0.124-0.021-0.265-0.031-0.426-0.031c-0.582,0-1.062,0.185-1.437,0.544c-0.375,0.36-0.68,0.883-0.911,1.566v5.015H159.247z"></path><path stroke="#000000" stroke-width="0.3" stroke-miterlimit="10" d="M168.338,39.76c0.554,0,1.048,0.092,1.483,0.282
 c0.438,0.189,0.806,0.456,1.105,0.803c0.3,0.346,0.527,0.763,0.686,1.251s0.236,1.035,0.236,1.639s-0.078,1.15-0.236,1.637
 c-0.158,0.485-0.386,0.9-0.686,1.248c-0.3,0.345-0.668,0.611-1.105,0.798c-0.436,0.187-0.93,0.278-1.483,0.278
 c-0.553,0-1.048-0.092-1.484-0.278s-0.805-0.453-1.108-0.798c-0.302-0.348-0.532-0.763-0.689-1.248
 c-0.158-0.486-0.236-1.033-0.236-1.637s0.078-1.15,0.236-1.639c0.157-0.488,0.388-0.905,0.689-1.251
 c0.304-0.347,0.672-0.613,1.108-0.803C167.29,39.852,167.785,39.76,168.338,39.76z M168.338,47.114c0.46,0,0.862-0.079,1.204-0.235
 c0.345-0.16,0.63-0.386,0.862-0.681c0.229-0.295,0.401-0.648,0.515-1.065c0.114-0.414,0.172-0.882,0.172-1.398
 c0-0.511-0.058-0.975-0.172-1.395c-0.113-0.419-0.286-0.775-0.515-1.074c-0.232-0.297-0.518-0.524-0.862-0.684
 c-0.342-0.162-0.744-0.242-1.204-0.242s-0.861,0.08-1.205,0.242c-0.343,0.159-0.63,0.387-0.859,0.684
 c-0.231,0.299-0.403,0.655-0.52,1.074c-0.116,0.42-0.174,0.884-0.174,1.395c0,0.517,0.058,0.984,0.174,1.398
 c0.116,0.417,0.288,0.771,0.52,1.065c0.229,0.295,0.517,0.521,0.859,0.681C167.477,47.035,167.878,47.114,168.338,47.114z"></path><path stroke="#000000" stroke-width="0.3" stroke-miterlimit="10" d="M174.33,39.883v4.93c0,0.724,0.166,1.291,0.494,1.699
 c0.335,0.412,0.842,0.618,1.52,0.618c0.501,0,0.971-0.129,1.407-0.385c0.436-0.257,0.826-0.609,1.174-1.064v-5.798h0.738v7.713
 h-0.408c-0.144,0-0.216-0.068-0.223-0.201l-0.069-1.15c-0.356,0.447-0.77,0.803-1.236,1.072c-0.47,0.269-0.991,0.403-1.565,0.403
 c-0.429,0-0.804-0.067-1.123-0.203c-0.323-0.134-0.589-0.327-0.802-0.581c-0.212-0.254-0.373-0.56-0.48-0.914
 c-0.107-0.356-0.162-0.76-0.162-1.209v-4.93H174.33z"></path><path stroke="#000000" stroke-width="0.3" stroke-miterlimit="10" d="M182.172,50.322V39.883h0.402
 c0.066,0,0.122,0.015,0.163,0.042c0.042,0.03,0.063,0.08,0.068,0.152l0.071,1.193c0.34-0.466,0.74-0.836,1.196-1.108
 c0.457-0.273,0.972-0.412,1.539-0.412c0.952,0,1.69,0.33,2.217,0.986c0.527,0.655,0.791,1.639,0.791,2.953
 c0,0.562-0.075,1.088-0.222,1.575c-0.147,0.488-0.364,0.913-0.646,1.271c-0.287,0.359-0.636,0.645-1.051,0.851
 c-0.417,0.207-0.896,0.31-1.438,0.31c-0.526,0-0.982-0.096-1.365-0.287c-0.382-0.19-0.714-0.476-0.992-0.853v3.767H182.172z
 M185.403,40.346c-0.512,0-0.976,0.134-1.393,0.401c-0.414,0.266-0.782,0.637-1.104,1.111v4.045c0.295,0.446,0.62,0.759,0.979,0.94
 c0.359,0.18,0.771,0.271,1.229,0.271c0.455,0,0.853-0.085,1.191-0.249c0.345-0.164,0.628-0.4,0.86-0.701
 c0.227-0.303,0.4-0.663,0.52-1.084c0.114-0.422,0.173-0.886,0.173-1.391c0-1.148-0.21-1.991-0.632-2.532
 C186.809,40.619,186.198,40.346,185.403,40.346z"></path><path stroke="#000000" stroke-width="0.3" stroke-miterlimit="10" d="M197.881,47.028c0.526,0,0.997-0.093,1.415-0.275
 c0.414-0.184,0.767-0.437,1.056-0.764c0.289-0.324,0.511-0.709,0.664-1.148c0.151-0.446,0.229-0.922,0.229-1.432v-6.781h0.789
 v6.781c0,0.604-0.096,1.169-0.286,1.694c-0.19,0.522-0.467,0.981-0.825,1.369c-0.358,0.391-0.797,0.698-1.311,0.922
 c-0.514,0.221-1.09,0.331-1.731,0.331c-0.64,0-1.218-0.11-1.731-0.331c-0.518-0.224-0.951-0.531-1.313-0.922
 c-0.357-0.388-0.634-0.847-0.824-1.369c-0.189-0.525-0.287-1.09-0.287-1.694v-6.781h0.8v6.774c0,0.51,0.077,0.986,0.228,1.43
 c0.151,0.441,0.372,0.826,0.659,1.15c0.286,0.325,0.638,0.58,1.055,0.768C196.881,46.936,197.354,47.028,197.881,47.028z"></path><path stroke="#000000" stroke-width="0.3" stroke-miterlimit="10" d="M206.221,41.688h0.649c0.097,0,0.183-0.005,0.255-0.011
 c0.072-0.009,0.14-0.023,0.199-0.047c0.057-0.023,0.113-0.053,0.164-0.089c0.053-0.036,0.107-0.084,0.162-0.141l4.428-4.548
 c0.082-0.083,0.156-0.141,0.229-0.176c0.07-0.032,0.156-0.05,0.259-0.05h0.644l-4.79,4.921c-0.098,0.105-0.184,0.184-0.258,0.24
 c-0.077,0.057-0.16,0.104-0.253,0.138c0.108,0.034,0.207,0.081,0.292,0.146c0.084,0.064,0.171,0.148,0.258,0.252l5.054,5.271
 h-0.643c-0.135,0-0.229-0.019-0.287-0.061c-0.057-0.037-0.115-0.088-0.18-0.149l-4.643-4.742c-0.057-0.058-0.109-0.107-0.154-0.15
 c-0.047-0.04-0.1-0.074-0.158-0.104c-0.061-0.026-0.131-0.047-0.212-0.061c-0.084-0.011-0.188-0.02-0.312-0.02h-0.703v5.287h-0.793
 V36.613h0.793V41.688z"></path></g></svg>