<?xml version="1.0" encoding="utf-8"?>
<!-- Svg Vector Icons : http://www.onlinewebfonts.com/icon -->
<!DOCTYPE svg PUBLIC "-//W3C//DTD SVG 1.1//EN" "http://www.w3.org/Graphics/SVG/1.1/DTD/svg11.dtd">
<svg version="1.1" xmlns="http://www.w3.org/2000/svg" xmlns:xlink="http://www.w3.org/1999/xlink" x="0px" y="0px" viewBox="0 0 1000 1000" enable-background="new 0 0 1000 1000" xml:space="preserve">
<metadata> Svg Vector Icons : http://www.onlinewebfonts.com/icon </metadata>
<g><g transform="translate(0.000000,511.000000) scale(0.100000,-0.100000)"><path d="M4707.2,4073.8c-788.6-68.9-1560-459.4-2101.6-1060.4l-120.6-134l-767.5-9.6c-765.6-9.6-765.6-9.6-861.3-57.4c-181.8-90-283.3-229.7-315.8-436.4c-11.5-65.1-19.1-1240.3-19.1-2869.2v-2762H310.5H100v-111v-109.1l250.7-197.1l250.7-195.2H5000h4398.5l250.8,195.2l250.7,197.1v109.1v111h-210.5h-210.5v2762c0,1628.9-7.7,2804.1-19.1,2869.2c-32.5,206.7-134,346.4-315.8,436.4l-95.7,47.9l-765.6,7.7l-765.6,5.7L7388.7,3023c-411.5,472.8-1037.4,840.3-1680.5,983.8C5357.9,4085.3,5053.6,4104.4,4707.2,4073.8z M5220.1,3463.2c467-44,867.1-185.7,1242.2-438.3c449.8-304.3,798.1-750.3,995.3-1269c118.7-319.6,178-767.5,143.6-1117.8C7541.9,4.5,7306.4-500.8,6852.8-969.8l-208.6-214.4l30.6-143.6c57.4-281.4,162.7-514.9,340.7-763.7c59.3-82.3,97.6-149.3,84.2-149.3c-68.9,0-407.7,107.2-541.7,172.3c-189.5,91.9-331.2,216.3-442.2,388.5c-49.8,78.5-93.8,128.3-109.1,122.5c-97.6-38.3-359.8-112.9-491.9-141.7c-225.9-47.9-802-47.9-1026,0c-524.4,112.9-953.2,344.5-1328.4,719.7C2747.1-564,2496.4-62.5,2414.1,511.7c-34.5,252.7-13.4,715.9,45.9,951.3c132.1,516.8,354.1,903.4,729.3,1269c434.5,421.1,972.3,671.8,1561.9,729.3C4986.6,3484.3,4990.4,3484.3,5220.1,3463.2z M2084.9,2234.4c-158.9-371.3-243.1-668-281.4-978.1c-34.4-266.1-15.3-790.5,36.4-1031.7c135.9-625.9,417.3-1154.2,861.3-1609.7c457.5-468.9,1008.7-771.4,1672.9-916.8c172.3-38.3,248.8-42.1,635.5-42.1c363.7,1.9,468.9,7.7,606.8,40.2l168.4,36.4l90-78.5c361.7-313.9,882.4-499.6,1575.3-566.6c231.6-21.1,761.8-15.3,1221.2,13.4l197.1,13.4l-5.7-179.9l-5.7-179.9l-1483.4-5.7l-1485.3-3.8l-34.5-67c-21-38.3-68.9-86.1-105.3-111c-67-42.1-78.5-42.1-748.4-42.1c-648.9,0-683.3,1.9-746.5,38.3c-36.4,23-84.2,72.7-105.3,111l-38.3,70.8l-1483.4,3.8l-1483.4,5.7L1139.3-518c-1.9,1500.6,0,2739,3.8,2752.4c5.7,17.2,120.6,23,480.4,23C1993,2257.3,2092.5,2251.6,2084.9,2234.4z M8862.6-225.2c1.9-1360.9,0-2474.9-5.7-2474.9c-23,0-738.8,415.4-863.2,499.6c-268,185.7-524.5,476.6-631.6,715.9l-47.9,111l76.6,78.5c145.5,151.2,346.4,440.2,468.9,681.4c457.5,886.2,484.2,1873.9,80.4,2800.3l-30.6,70.8l472.8-3.8l474.7-5.7L8862.6-225.2z"/><path d="M3543.4,1325.2c-28.7-3.8-97.6-34.4-153.1-68.9c-252.7-151.2-300.5-474.7-107.2-696.7c130.2-145.5,304.3-193.3,493.8-135.9c95.7,28.7,218.2,132.1,268,227.8C4217.1,990.2,3922.4,1384.5,3543.4,1325.2z"/><path d="M4881.3,1311.8c-222-61.3-354.1-252.7-336.9-490c23-313.9,350.3-509.1,643.1-382.8c176.1,76.6,275.6,229.7,275.6,423C5463.2,1170.2,5176.1,1392.2,4881.3,1311.8z"/><path d="M6276.7,1317.5C6056.6,1263.9,5913,1084,5913,860.1c0-461.3,614.4-633.6,855.6-241.2C6981.1,963.4,6665.2,1411.3,6276.7,1317.5z"/></g></g>
</svg>