<svg xmlns="http://www.w3.org/2000/svg" xmlns:xlink="http://www.w3.org/1999/xlink" viewBox="0 0 498.94 125.82"><defs><linearGradient id="linear-gradient" x1="-1.73" y1="63.37" x2="112.85" y2="32.67" gradientUnits="userSpaceOnUse"><stop offset="0.2" stop-color="#ff5800"/><stop offset="0.24" stop-color="#ff7000"/><stop offset="0.32" stop-color="#ff9500"/><stop offset="0.4" stop-color="#ffb200"/><stop offset="0.47" stop-color="#ffc600"/><stop offset="0.55" stop-color="#ffd300"/><stop offset="0.62" stop-color="gold"/><stop offset="0.66" stop-color="#ffce00"/><stop offset="0.72" stop-color="#ffb600"/><stop offset="0.81" stop-color="#ff8e00"/><stop offset="0.9" stop-color="#ff5800"/></linearGradient><linearGradient id="linear-gradient-2" x1="2.35" y1="74.07" x2="122.24" y2="74.07" gradientUnits="userSpaceOnUse"><stop offset="0.09" stop-color="#ff5800"/><stop offset="0.19" stop-color="#ff7907"/><stop offset="0.31" stop-color="#ff990e"/><stop offset="0.4" stop-color="#ffad12"/><stop offset="0.47" stop-color="#ffb414"/><stop offset="0.53" stop-color="#ffad12"/><stop offset="0.62" stop-color="#ff980e"/><stop offset="0.73" stop-color="#ff7707"/><stop offset="0.82" stop-color="#ff5800"/></linearGradient><linearGradient id="linear-gradient-3" x1="2.87" y1="56.32" x2="125.83" y2="82.45" gradientUnits="userSpaceOnUse"><stop offset="0.5" stop-color="#ff5800"/><stop offset="0.64" stop-color="#ce056a" stop-opacity="0.99"/><stop offset="0.76" stop-color="#cf0768" stop-opacity="0.99"/><stop offset="0.81" stop-color="#d20d60" stop-opacity="0.99"/><stop offset="0.85" stop-color="#d81753" stop-opacity="0.99"/><stop offset="0.88" stop-color="#e12541" stop-opacity="0.99"/><stop offset="0.91" stop-color="#ec3829"/><stop offset="0.94" stop-color="#f94e0c"/><stop offset="0.95" stop-color="#ff5800"/></linearGradient><linearGradient id="linear-gradient-4" x1="7.89" y1="102.93" x2="128.32" y2="86.01" gradientUnits="userSpaceOnUse"><stop offset="0" stop-color="#ff5800"/><stop offset="0.06" stop-color="#fc5400"/><stop offset="0.13" stop-color="#f54700"/><stop offset="0.19" stop-color="#e83300"/><stop offset="0.26" stop-color="#d61600"/><stop offset="0.3" stop-color="#c80000"/><stop offset="0.48" stop-color="#c80000"/><stop offset="0.91" stop-color="#ff5800"/></linearGradient></defs><title>logo4</title><g id="Layer_2" data-name="Layer 2"><g id="logo"><path d="M173.19,50.86a44.87,44.87,0,0,0-8.46.79,21.5,21.5,0,0,0-6.54,2.18L159,62a53.47,53.47,0,0,1,6.54-1.48,39.18,39.18,0,0,1,5.85-.44q11.17,0,11.17,8.55v1.92a39.56,39.56,0,0,0-7.33-.52q-9.78,0-15.45,4.36a14.35,14.35,0,0,0-5.67,12q0,15.71,21.47,15.71a67.75,67.75,0,0,0,18.15-2.62v-30Q193.78,50.86,173.19,50.86Zm9.42,41.89a26.71,26.71,0,0,1-7.16.87q-10.12,0-10.12-7.33,0-7.68,11.17-7.68a23,23,0,0,1,6.11.52Z" style="fill:#ff5800"/><polygon points="198.84 52.08 211.23 52.08 223.27 89.78 235.49 52.08 247.36 52.08 228.86 100.95 217.34 100.95 198.84 52.08" style="fill:#ff5800"/><path d="M269,50.86a44.88,44.88,0,0,0-8.46.79A21.5,21.5,0,0,0,254,53.83l.87,8.2a53.47,53.47,0,0,1,6.54-1.48,39.18,39.18,0,0,1,5.85-.44q11.17,0,11.17,8.55v1.92a39.56,39.56,0,0,0-7.33-.52q-9.78,0-15.45,4.36a14.35,14.35,0,0,0-5.67,12q0,15.71,21.47,15.71a67.76,67.76,0,0,0,18.15-2.62v-30Q289.59,50.86,269,50.86Zm9.42,41.89a26.71,26.71,0,0,1-7.16.87q-10.12,0-10.12-7.33,0-7.68,11.17-7.68a23,23,0,0,1,6.11.52Z" style="fill:#ff5800"/><path d="M332.8,72.15q0-6.63-2.53-9.16t-9-2.53a24.36,24.36,0,0,0-3.75.35,39.47,39.47,0,0,0-4.1.87v39.27H302.08V54.53A49.41,49.41,0,0,1,312,51.82a64,64,0,0,1,10.82-1q21.29,0,21.29,19.2v30.89H332.8Z" style="fill:#ff5800"/><path d="M372.06,50.86a44.88,44.88,0,0,0-8.46.79,21.5,21.5,0,0,0-6.54,2.18l.87,8.2a53.47,53.47,0,0,1,6.54-1.48,39.19,39.19,0,0,1,5.85-.44q11.17,0,11.17,8.55v1.92a39.55,39.55,0,0,0-7.33-.52q-9.78,0-15.45,4.36a14.35,14.35,0,0,0-5.67,12q0,15.71,21.47,15.71a67.75,67.75,0,0,0,18.15-2.62v-30Q392.66,50.86,372.06,50.86Zm9.42,41.89a26.71,26.71,0,0,1-7.16.87q-10.12,0-10.12-7.33,0-7.68,11.17-7.68a23,23,0,0,1,6.11.52Z" style="fill:#ff5800"/><path d="M434.89,33.23V51.91a26.54,26.54,0,0,0-8.2-1q-11.17,0-18.15,7.24t-7,18.94q0,12.22,6.81,18.67t19.9,6.46a69.91,69.91,0,0,0,18-2.62V33.23Zm0,58.81a23.39,23.39,0,0,1-7,.7q-14.49,0-14.49-15.88,0-8,3.75-12.39t10.56-4.36a18.81,18.81,0,0,1,7.16,1.22Z" style="fill:#ff5800"/><path d="M498.94,73.9q0-10.64-5.58-16.84t-15.18-6.2q-10.47,0-16.67,7t-6.2,19q0,12,6.63,18.67t18.85,6.63A41.44,41.44,0,0,0,496,99.38l-1.22-8.55a40.1,40.1,0,0,1-13.09,2.09Q467.35,92.92,467,80h31.94ZM467,71.45a14.54,14.54,0,0,1,3.4-8.73,9.6,9.6,0,0,1,7.42-3.14,9.34,9.34,0,0,1,7.33,3.14q2.79,3.14,2.79,8.73Z" style="fill:#ff5800"/><path d="M32.79,31.2q-5.78,11.26-9.37,18a101.85,101.85,0,0,1-6.6,10.89,33.59,33.59,0,0,1-6.38,6.86,92.33,92.33,0,0,1-8.53,5.85L0,69.84q3.28-2.41,5.88-4.77a41.36,41.36,0,0,0,5.61-6.55A124.33,124.33,0,0,0,18.44,47.3q3.94-7,9.74-19a115.91,115.91,0,0,1,7.89-14.14,48.37,48.37,0,0,1,7.2-8.68A21.74,21.74,0,0,1,50,1.13,16.7,16.7,0,0,1,56.58,0a16.33,16.33,0,0,1,6.33,1.57A22.31,22.31,0,0,1,69.77,7.3a79.21,79.21,0,0,1,8.31,12.26q4.6,8,10.87,21a138.2,138.2,0,0,0,7.67,14A50.72,50.72,0,0,0,104,63.86a34.32,34.32,0,0,0,8.28,5.94,60.71,60.71,0,0,0,10.28,4L125,77.91a54.33,54.33,0,0,1-12.51-2.71,32.55,32.55,0,0,1-10.21-6,53.37,53.37,0,0,1-9.14-10.43,126.92,126.92,0,0,1-9.11-16q-5.81-11.66-9.85-19A92.42,92.42,0,0,0,67,12.43a21.58,21.58,0,0,0-5.61-5.51,10.62,10.62,0,0,0-5-1.52,11.49,11.49,0,0,0-5.25,1.08,17.67,17.67,0,0,0-5.36,4.2,57.34,57.34,0,0,0-6,8Q36.58,23.75,32.79,31.2Z" style="fill:url(#linear-gradient)"/><path d="M90.08,80.4a97.83,97.83,0,0,0,16.84-.84,74.43,74.43,0,0,0,14.75-3.45l.57,3.05q-11.52,7.35-32.34,6.62a72.65,72.65,0,0,1-16.23-2.17,69.76,69.76,0,0,1-12.12-4.38q-4-1.82-7.6-3.8T46.59,71.8A62.27,62.27,0,0,0,39,69a33.43,33.43,0,0,0-8.28-1.3,62.5,62.5,0,0,0-13.23,1A73.17,73.17,0,0,0,4.28,72.35L2.35,70.09l3.59-1.73a43.54,43.54,0,0,1,11.85-4.64,48.32,48.32,0,0,1,13.08-1.4,40.61,40.61,0,0,1,9.28,1.34,53.35,53.35,0,0,1,8.05,2.89q3.8,1.74,7.6,3.8t7.93,3.9A84.94,84.94,0,0,0,75,78.36,63.45,63.45,0,0,0,90.08,80.4Z" style="fill:url(#linear-gradient-2)"/><path d="M98.25,39.22a11,11,0,0,0-5.77,1.4,25.67,25.67,0,0,0-6.33,5.59,111.14,111.14,0,0,0-8.38,11.25Q73,64.63,65.86,76,56.24,91.52,48,98.4T30.72,105q-9.57-.33-18-9.56T0,69.84l5.34,1q4.42,13,11.21,20.7t14.35,8q7.05.25,14.25-5.91T61.07,73.49Q68.91,61,74.22,53.13A105.43,105.43,0,0,1,83.56,41,23.72,23.72,0,0,1,91,35.17a17,17,0,0,1,7.44-1.34q9.07.32,16.1,10.84T127,76.8l-5.8-2.39q-5.43-17.89-11-26.43T98.25,39.22Z" style="fill:url(#linear-gradient-3)"/><path d="M77.76,120.42a13.37,13.37,0,0,0,8.34-2.83q4.14-3,10.48-11.35,4.93-6.4,8.1-10.59t6-7.38q2.8-3.19,5.76-6.12T123.73,75l3.3,1.8q-4,4.58-6.74,7.77t-5.36,6.55q-2.64,3.36-5.81,7.55T101,109.43q-6.71,9-12,12.81a18.14,18.14,0,0,1-11.47,3.56,19.31,19.31,0,0,1-6.1-1.14,24,24,0,0,1-6.34-3.93,81.44,81.44,0,0,1-8.46-8.22q-4.86-5.31-12.3-13.83-5.66-6.44-10.21-10.81a50.5,50.5,0,0,0-9.08-7.06,43.57,43.57,0,0,0-9.52-4.21A64.77,64.77,0,0,0,3.88,74.35l1.32-4a91.42,91.42,0,0,1,12.21,1.77A37,37,0,0,1,27.53,76a53.26,53.26,0,0,1,9.67,7.16A134.63,134.63,0,0,1,48.06,94.61q7.43,8.52,12.14,13.57t7.8,7.77a19.16,19.16,0,0,0,5.26,3.55A13.73,13.73,0,0,0,77.76,120.42Z" style="fill:url(#linear-gradient-4)"/></g></g></svg>