<svg width="1158" height="373" viewBox="0 0 1158 373" fill="none" xmlns="http://www.w3.org/2000/svg">
<path d="M180.823 372.483C280.245 372.483 360.842 291.886 360.842 192.464C360.842 93.0424 280.245 12.4453 180.823 12.4453C81.4018 12.4453 0.804688 93.0424 0.804688 192.464C0.804688 291.886 81.4018 372.483 180.823 372.483Z" fill="#FD3E81"/>
<path d="M307.373 162.209C303.527 155.362 298.14 149.986 291.223 146.059C284.306 142.143 276.141 140.18 266.738 140.18C257.334 140.18 249.763 142.183 243.208 146.17C239.03 148.717 235.466 151.98 232.506 155.967C229.526 151.98 225.931 148.707 221.713 146.17C215.078 142.183 207.275 140.18 198.294 140.18C189.313 140.18 180.896 142.143 173.909 146.059C166.922 149.986 161.505 155.362 157.649 162.209C153.803 169.055 151.87 176.969 151.87 185.95V245.835H179.89V188.084C179.89 180.956 181.561 175.499 184.914 171.723C188.266 167.948 193.008 166.055 199.14 166.055C205.271 166.055 210.185 167.948 213.467 171.723C216.749 175.499 218.39 180.956 218.39 188.084V245.835H246.621V188.084C246.621 180.956 248.262 175.499 251.545 171.723C254.827 167.948 259.529 166.055 265.66 166.055C271.792 166.055 276.705 167.978 279.987 171.834C283.269 175.68 284.911 181.107 284.911 188.094V245.845H313.142V185.96C313.142 176.979 311.219 169.065 307.363 162.219L307.373 162.209Z" fill="white"/>
<path d="M125.411 146.704C118.494 142.928 110.55 141.035 101.559 141.035C91.5817 141.035 82.6311 143.351 74.7176 147.983C66.804 152.614 60.5315 158.856 55.9002 166.699C51.2688 174.542 48.9531 183.312 48.9531 193.007C48.9531 202.703 51.2688 211.764 55.9002 219.738C60.5315 227.722 66.8442 234.065 74.8283 238.777C82.8123 243.479 91.8636 245.835 101.992 245.835C110.258 245.835 117.709 244.446 124.344 241.667C130.978 238.888 136.778 234.861 141.771 229.585L131.935 219.748C128.23 223.594 123.951 226.554 119.098 228.628C114.245 230.692 108.547 231.729 101.982 231.729C94.5619 231.729 87.9672 230.058 82.1982 226.705C81.433 226.262 80.688 225.789 79.9631 225.296L142.406 162.642C137.986 155.795 132.317 150.489 125.401 146.704H125.411ZM63.9144 193.007C63.9144 185.738 65.5152 179.214 68.727 173.435C71.9387 167.656 76.3889 163.135 82.0975 159.853C87.7961 156.571 94.3605 154.93 101.771 154.93C108.184 154.93 113.671 156.148 118.242 158.564C120.467 159.752 122.491 161.152 124.313 162.783L70.8916 216.396C70.1265 215.308 69.3915 214.191 68.7371 213.003C65.5253 207.224 63.9245 200.569 63.9245 193.007H63.9144Z" fill="white"/>
<path d="M510.533 281.214C493.463 281.214 478.123 277.408 464.514 269.796C450.904 262.183 440.178 251.803 432.335 238.655C424.492 225.506 420.57 210.743 420.57 194.365C420.57 177.757 424.492 162.879 432.335 149.73C440.408 136.582 451.135 126.202 464.514 118.589C478.123 110.746 493.463 106.825 510.533 106.825C537.061 106.825 558.744 116.167 575.583 134.852L546.518 164.263C537.522 154.344 525.527 149.384 510.533 149.384C497.846 149.384 487.35 153.536 479.046 161.841C470.973 170.145 466.936 180.871 466.936 194.019C466.936 207.399 470.973 218.24 479.046 226.544C487.35 234.849 497.846 239.001 510.533 239.001C525.758 239.001 537.868 233.811 546.864 223.43L576.275 252.841C558.974 271.756 537.061 281.214 510.533 281.214ZM676.772 281.214C659.933 281.214 644.708 277.408 631.099 269.796C617.72 261.953 606.993 251.457 598.92 238.309C591.077 225.16 587.155 210.282 587.155 193.673C587.155 177.526 591.077 162.879 598.92 149.73C606.763 136.582 617.374 126.202 630.753 118.589C644.362 110.746 659.587 106.825 676.426 106.825C693.265 106.825 708.49 110.746 722.099 118.589C735.709 126.202 746.435 136.582 754.278 149.73C762.121 162.648 766.043 177.296 766.043 193.673C766.043 210.282 762.121 225.276 754.278 238.655C746.435 251.803 735.709 262.183 722.099 269.796C708.72 277.408 693.611 281.214 676.772 281.214ZM676.426 239.001C689.344 239.001 699.724 234.849 707.567 226.544C715.64 218.01 719.677 207.168 719.677 194.019C719.677 180.871 715.64 170.145 707.567 161.841C699.493 153.536 689.113 149.384 676.426 149.384C663.97 149.384 653.705 153.652 645.631 162.187C637.557 170.491 633.521 181.102 633.521 194.019C633.521 207.168 637.557 218.01 645.631 226.544C653.705 234.849 663.97 239.001 676.426 239.001ZM863.042 281.214C848.048 281.214 834.669 277.408 822.904 269.796C811.14 261.953 801.798 251.572 794.878 238.655C788.188 225.506 784.843 210.743 784.843 194.365C784.843 177.988 788.188 163.225 794.878 150.076C801.798 136.928 811.14 126.548 822.904 118.935C834.669 111.092 848.048 107.171 863.042 107.171C873.653 107.171 883.11 109.016 891.414 112.707C899.719 116.398 906.754 121.473 912.521 127.932V27.5887H957.502V277.754H912.521V260.799C906.754 267.028 899.719 271.987 891.414 275.678C883.11 279.369 873.653 281.214 863.042 281.214ZM873.076 238.655C885.532 238.655 895.567 234.503 903.179 226.198C910.791 217.664 914.597 206.707 914.597 193.327C914.597 180.179 910.791 169.453 903.179 161.149C895.567 152.614 885.532 148.346 873.076 148.346C860.62 148.346 850.47 152.614 842.627 161.149C835.015 169.453 831.209 180.294 831.209 193.673C831.209 206.822 835.015 217.664 842.627 226.198C850.47 234.503 860.62 238.655 873.076 238.655ZM1078.95 281.214C1060.72 281.214 1044.58 277.408 1030.5 269.796C1016.66 261.953 1005.82 251.457 997.98 238.309C990.137 225.16 986.216 210.282 986.216 193.673C986.216 177.526 990.137 162.879 997.98 149.73C1006.05 136.582 1016.78 126.202 1030.16 118.589C1043.77 110.746 1059.11 106.825 1076.18 106.825C1093.94 106.825 1109.05 110.862 1121.51 118.935C1133.96 126.778 1143.65 138.081 1150.57 152.844L1061.65 240.385C1067.18 242 1073.18 242.807 1079.64 242.807C1097.4 242.807 1111.47 237.04 1121.85 225.506L1148.49 252.149C1131.19 271.526 1108.01 281.214 1078.95 281.214ZM1029.47 192.981C1029.47 202.208 1031.31 210.397 1035 217.548L1101.78 152.152C1095.32 147.769 1087.02 145.578 1076.87 145.578C1062.34 145.578 1050.8 150.076 1042.27 159.072C1033.73 167.838 1029.47 179.141 1029.47 192.981Z" fill="#0A0F0D"/>
</svg>
