<svg height="300" viewBox="0 0 600 300" width="600" xmlns="http://www.w3.org/2000/svg"><path d="m0 0h600v300h-600z" fill="#fff" opacity="0"/><path d="m470.18 217.116h34.337v-95.923h34.063v-29.431h-102.463v29.431h34.063zm-113.09-67.854v-30.521h19.62c12.536 0 18.8 5.177 18.8 15.26s-6.267 15.261-18.8 15.261zm-34.064 67.854h34.336v-40.876h20.438c30.794 0 51.232-13.353 51.232-42.239s-20.711-42.239-51.232-42.239h-54.774zm-118 0h93.474v-28.068h-59.134v-21.256h58.589v-26.978h-58.589v-20.983h59.134v-28.069h-93.47zm-103.549-29.158v-67.037h10.9c23.981 0 38.969 8.72 38.969 33.518s-14.716 33.519-38.969 33.519zm-34.336 29.158h44.964c42.511 0 73.3-16.9 73.3-62.677-.272-45.781-31.066-62.677-73.3-62.677h-44.964z"/></svg>