<svg xmlns="http://www.w3.org/2000/svg" xmlns:xlink="http://www.w3.org/1999/xlink" version="1.1" id="Layer_1" x="0px" y="0px" enable-background="new 0 0 950 400" xml:space="preserve" viewBox="100.38 91.91 743.12 178.48">
<g>
	<path fill="#008CA8" d="M457.512,215.026c-1.381,0-2.549-0.342-3.508-1.036c-0.955-0.688-1.704-1.56-1.972-2.618   c-0.265-1.057-0.524-4.787-0.524-11.183v-32.055h14v-16h-14v-29.499l-21,21.056v8.443h-8.511l-16,16h24.511v34.635   c0,7.337,0.438,12.206,0.876,14.616c0.541,3.395,1.622,6.093,3.031,8.084c1.397,1.995,3.655,3.619,6.655,4.872   c2.998,1.256,6.399,1.883,10.139,1.883c6.102,0,11.579-1.035,16.404-3.101l-1.764-16.093   C462.209,214.361,459.43,215.026,457.512,215.026z"/>
	<path fill="#008CA8" d="M410.191,215.026c-1.381,0-2.545-0.342-3.51-1.036c-0.959-0.688-1.535-1.56-1.809-2.618   c-0.271-1.057-0.365-4.787-0.365-11.183v-30.565l-21,21v12.146c0,7.337,0.277,12.206,0.719,14.616   c0.542,3.395,1.541,6.093,2.944,8.084c1.403,1.995,3.62,3.619,6.618,4.872c3.004,1.256,6.376,1.883,10.121,1.883   c6.096,0,11.564-1.035,16.393-3.101l-1.771-16.093C414.892,214.361,412.109,215.026,410.191,215.026z"/>
	<polygon fill="#008CA8" points="343.679,230.453 364.414,230.453 364.414,209.719  "/>
	<path fill="#008CA8" d="M542.178,204.69l0.223-24.212c0-9.006-0.918-15.195-2.768-18.564c-1.852-3.372-5.031-6.152-9.557-8.342   c-4.533-2.191-11.42-3.285-20.67-3.285c-10.189,0-17.867,1.819-23.031,5.463c-5.172,3.641-8.811,9.251-10.93,16.826l18.824,3.398   c1.283-3.639,2.953-6.188,5.021-7.641c2.068-1.451,4.945-2.177,8.635-2.177c5.461,0,9.182,0.848,11.15,2.545   c1.969,1.7,2.951,4.542,2.951,8.526v2.069c-3.74,1.574-10.463,3.271-20.152,5.091c-7.188,1.382-12.688,2.991-16.5,4.836   c-3.812,1.848-6.777,4.501-8.896,7.973c-2.111,3.472-3.174,7.42-3.174,11.851c0,6.693,2.326,12.227,6.975,16.607   c4.652,4.381,11.012,6.569,19.086,6.569c4.574,0,8.885-0.859,12.914-2.583c4.035-1.724,7.83-4.307,11.371-7.755   c0.148,0.397,0.395,1.212,0.736,2.441c0.791,2.707,1.457,4.749,1.992,6.125h20.523c-1.822-3.738-3.061-7.245-3.723-10.517   C542.512,216.665,542.178,211.581,542.178,204.69z M522.027,196.938c0,4.972-0.271,8.344-0.812,10.114   c-0.785,2.707-2.434,4.996-4.945,6.867c-3.389,2.459-6.963,3.689-10.703,3.689c-3.348,0-6.102-1.06-8.273-3.175   c-2.162-2.115-3.244-4.628-3.244-7.528c0-2.954,1.355-5.39,4.061-7.309c1.775-1.183,5.539-2.389,11.297-3.618   c5.758-1.23,9.967-2.289,12.621-3.175V196.938z"/>
	<path fill="#008CA8" d="M694.441,185.129c0,11.221-0.518,18.271-1.551,21.147c-1.031,2.883-2.953,5.29-5.76,7.237   c-2.805,1.941-5.979,2.916-9.52,2.916c-3.102,0-5.664-0.728-7.676-2.181c-2.02-1.45-3.41-3.418-4.17-5.904   c-0.768-2.486-1.146-9.241-1.146-20.262v-36.024h-20.744v49.604c0,7.385,0.936,13.166,2.803,17.35   c1.875,4.181,4.896,7.432,9.08,9.74c4.18,2.312,8.908,3.472,14.178,3.472c5.162,0,10.07-1.207,14.727-3.618   c4.648-2.41,8.4-5.708,11.26-9.889v11.735h19.262v-78.395h-20.742V185.129z"/>
	<path fill="#008CA8" d="M789.391,190.516c-4.385-3.639-12.098-6.717-23.146-9.227c-11.043-2.508-17.508-4.452-19.375-5.83   c-1.377-1.036-2.068-2.288-2.068-3.766c0-1.721,0.785-3.125,2.361-4.209c2.369-1.524,6.275-2.286,11.742-2.286   c4.324,0,7.662,0.811,9.998,2.437c2.342,1.623,3.93,3.959,4.766,7.01l19.559-3.613c-1.965-6.842-5.561-12.008-10.777-15.506   c-5.217-3.491-13.191-5.238-23.916-5.238c-11.275,0-19.588,2.312-24.951,6.937c-5.365,4.628-8.047,10.335-8.047,17.126   c0,7.531,3.102,13.412,9.297,17.644c4.484,3.051,15.088,6.422,31.816,10.111c3.594,0.842,5.906,1.75,6.943,2.733   c0.984,1.038,1.473,2.339,1.473,3.916c0,2.312-0.906,4.159-2.727,5.536c-2.707,1.966-6.74,2.948-12.109,2.948   c-4.867,0-8.662-1.041-11.367-3.136c-2.707-2.095-4.5-5.155-5.391-9.191l-20.818,3.175c1.922,7.435,5.994,13.312,12.219,17.644   c6.225,4.33,14.678,6.495,25.357,6.495c11.766,0,20.646-2.583,26.648-7.749c6.012-5.166,9.006-11.345,9.006-18.529   C795.883,199.351,793.717,194.208,789.391,190.516z"/>
	<rect x="612.691" y="152.059" fill="#008CA8" width="20.744" height="78.395"/>
	<rect x="612.691" y="122.232" fill="#008CA8" width="20.744" height="19.195"/>
	<path fill="#008CA8" d="M583.424,152.795c-2.629,1.674-5.596,5.145-8.896,10.41v-11.146h-19.264v78.395h20.744v-24.212   c0-13.336,0.58-22.097,1.732-26.28c1.16-4.18,2.742-7.072,4.76-8.674c2.02-1.598,4.484-2.399,7.385-2.399   c3.002,0,6.25,1.132,9.744,3.396l6.42-18.082c-4.381-2.609-8.932-3.914-13.654-3.914   C589.043,150.287,586.061,151.123,583.424,152.795z"/>
</g>
<g>
	<rect x="343.678" y="122.232" fill="#004960" width="20.736" height="19.195"/>
	<polygon fill="#004960" points="383.508,190.624 404.508,169.624 404.508,168.135 405.997,168.135 421.997,152.135    404.508,152.135 404.508,122.677 383.508,143.691 383.508,152.135 374.508,152.135 374.508,168.135 383.508,168.135  "/>
	<polygon fill="#004960" points="364.414,209.719 364.414,152.059 343.678,152.059 343.678,230.453 343.679,230.453  "/>
	<path fill="#004960" d="M167.109,190.516c-4.383-3.639-12.091-6.717-23.145-9.227c-11.041-2.508-17.508-4.452-19.373-5.83   c-1.377-1.036-2.071-2.288-2.071-3.766c0-1.721,0.789-3.125,2.369-4.209c2.362-1.524,6.275-2.286,11.742-2.286   c4.325,0,7.655,0.811,9.997,2.437c2.339,1.623,3.924,3.959,4.766,7.01l19.562-3.613c-1.968-6.842-5.566-12.008-10.782-15.506   c-5.216-3.491-13.189-5.238-23.916-5.238c-11.271,0-19.588,2.312-24.951,6.937c-5.369,4.628-8.043,10.335-8.043,17.126   c0,7.531,3.095,13.412,9.3,17.644c4.478,3.051,15.078,6.422,31.812,10.111c3.595,0.842,5.905,1.75,6.938,2.733   c0.985,1.038,1.479,2.339,1.479,3.916c0,2.312-0.909,4.159-2.727,5.536c-2.712,1.966-6.746,2.948-12.112,2.948   c-4.869,0-8.659-1.041-11.362-3.136c-2.712-2.095-4.507-5.155-5.393-9.191l-20.818,3.175c1.918,7.435,5.993,13.312,12.215,17.644   c6.225,4.33,14.678,6.495,25.357,6.495c11.765,0,20.647-2.583,26.649-7.749c6.008-5.166,9.005-11.345,9.005-18.529   C173.605,199.351,171.44,194.208,167.109,190.516z"/>
	<path fill="#004960" d="M249.213,204.69l0.217-24.212c0-9.006-0.921-15.195-2.765-18.564c-1.848-3.372-5.034-6.152-9.562-8.342   c-4.527-2.191-11.415-3.285-20.667-3.285c-10.191,0-17.867,1.819-23.033,5.463c-5.163,3.641-8.808,9.251-10.92,16.826l18.817,3.398   c1.283-3.639,2.954-6.188,5.028-7.641c2.065-1.451,4.943-2.177,8.629-2.177c5.466,0,9.179,0.848,11.147,2.545   c1.971,1.7,2.954,4.542,2.954,8.526v2.069c-3.74,1.574-10.456,3.271-20.15,5.091c-7.184,1.382-12.683,2.991-16.499,4.836   c-3.816,1.848-6.776,4.501-8.894,7.973c-2.121,3.472-3.174,7.42-3.174,11.851c0,6.693,2.321,12.227,6.976,16.607   c4.648,4.381,11.006,6.569,19.079,6.569c4.575,0,8.882-0.859,12.921-2.583c4.033-1.724,7.823-4.307,11.362-7.755   c0.156,0.397,0.397,1.212,0.741,2.441c0.788,2.707,1.45,4.749,1.995,6.125h20.521c-1.818-3.738-3.062-7.245-3.725-10.517   C249.54,216.665,249.213,211.581,249.213,204.69z M229.057,196.938c0,4.972-0.271,8.344-0.812,10.114   c-0.785,2.707-2.436,4.996-4.948,6.867c-3.389,2.459-6.958,3.689-10.697,3.689c-3.348,0-6.102-1.06-8.27-3.175   c-2.166-2.115-3.245-4.628-3.245-7.528c0-2.954,1.348-5.39,4.06-7.309c1.771-1.183,5.534-2.389,11.292-3.618   c5.757-1.23,9.965-2.289,12.622-3.175V196.938z"/>
	<path fill="#004960" d="M301.286,217.519c-9.799-0.554-12.175-0.779-15.294-0.908c-2.119-0.086-4.114-0.08-4.114-2.527   c0-2.443,1.995-2.613,4.26-2.613c2.214,0,4.212,0,10.263,0c0.018,0,0.042,0.003,0.062,0.003c0.024,0,0.042-0.003,0.069-0.003   c0.086,0,0.158,0,0.244,0l-0.027-0.006c21.946-0.104,36.294-11.74,36.294-29.773c0-5.743-1.489-10.833-4.212-15.115h5.186v-14.504   h-36.106c-0.485-0.011-0.953-0.046-1.447-0.046c-21.979,0-36.448,11.664-36.448,29.666c0,10.414,4.801,18.68,13.044,23.839   c-2.665,0.94-9.803,3.929-9.803,11.733c0,11.909,8.895,13.721,28.579,15.794c18.494,1.952,26.292,1.67,26.292,10.677   s-10.835,10.396-21.664,10.396c-10.697,0-18.597-2.935-18.597-12.752l-21.694-0.002c0,18.714,15.996,29.007,40.285,29.007   c24.432,0,40.429-7.941,40.429-26.653C336.886,225.13,324.209,218.81,301.286,217.519z M296.482,166.404   c1.48,0,3.188,0.171,3.188,0.171c7.239,0.812,13.668,4.632,13.668,14.423c0,11.332-8.43,14.716-16.856,14.716   c-8.329,0-16.762-3.384-16.762-14.716C279.72,169.787,288.153,166.404,296.482,166.404z"/>
</g>
<g>
	<g>
		<polygon fill="#C1CC23" points="843.5,91.906 843.5,151.83 825.745,151.83 825.745,109.67   "/>
	</g>
	<polygon fill="#96A832" points="843.5,91.906 783.576,91.906 783.576,109.661 825.754,109.661  "/>
</g>
</svg>