<svg version="1.1" id="Layer_1" xmlns="http://www.w3.org/2000/svg" xmlns:xlink="http://www.w3.org/1999/xlink" x="0px" y="0px"
	 width="462.047px" height="99.212px" viewBox="0 0 462.047 99.212" enable-background="new 0 0 462.047 99.212"
	 xml:space="preserve">
<path fill="#CDCE00" d="M214.622,11.623l21.602,5.29V7.586h-21.602V11.623z M301.383,32.633v0.232l11.15,2.725v-2.957
	c0-20.967,21.382-14.222,21.382-14.222V7.26C309.98,1.067,301.383,19.358,301.383,32.633 M291.632,13.324
	c-1.584-2.298-4.109-4.078-7.593-5.34h0.043c-3.297-1.282-6.233-1.924-10.326-1.924c-4.097,0-7.056,0.668-10.54,2.008
	c-3.48,1.339-6.669,3.762-8.475,6.067c-1.73,2.208-2.942,5.037-3.179,7.672h12.038c0.112-1.647,0.981-3.15,2.628-4.423
	c1.847-1.498,3.687-2.249,7.166-2.249c2.944,0,4.634,0.615,6.588,1.848c1.873,1.125,2.813,3.106,2.813,5.944l-0.04,5.374
	l11.283,2.766v-5.448c0-5.997-0.813-10.108-2.447-12.333L291.632,13.324z M371.185,7.586h-11.814v35.617
	c0,1.154,0.106,2.503,0.336,3.938l14.308,3.503c-1.614-2.124-2.829-5.445-2.829-10.709V7.586z M453.228,39.732
	c-0.793-1.782-2.025-3.309-3.714-4.594c-0.592-0.408-1.17-0.786-1.752-1.153c-0.57-0.354-1.137-0.671-1.7-0.942
	c-0.59-0.292-1.581-0.663-2.972-1.101c-1.396-0.446-3.176-0.974-5.343-1.585h0.037l-3.209-0.926l-4.299-1.207
	c-2.518-0.744-4.354-1.566-5.505-2.445c-1.149-0.887-1.724-1.998-1.724-3.337c0-1.766,0.803-3.305,2.41-4.616
	c1.711-1.314,4.228-1.966,7.551-1.966c1.313,0,2.509,0.103,3.589,0.32c1.089,0.218,2.018,0.52,2.796,0.925
	c0.778,0.396,1.374,0.881,1.787,1.443c0.415,0.563,0.624,1.207,0.624,1.929v1.366h11.286v-1.366c0-3.671-1.53-6.987-4.581-9.958
	c-2.997-2.945-8.021-4.422-15.057-4.422c-3.512,0-6.607,0.438-9.284,1.309c-2.674,0.871-4.938,2.132-6.783,3.797
	c-1.768,1.707-3.125,3.575-4.077,5.599c-0.95,2.019-1.428,4.154-1.428,6.408c0,6.61,3.791,11.296,11.369,14.056l6.262,1.925
	l3.015,0.966l4.618,1.406c3.938,1.177,5.901,3.148,5.901,5.904c0,2.088-1.015,3.91-3.05,5.46c-1.984,1.634-4.726,2.453-8.234,2.453
	c-3.905,0-6.641-0.671-8.19-2.011h0.038c-1.524-1.361-2.29-3-2.29-4.9v-1.322h-11.244v1.322c0,3.35,0.939,6.281,2.813,8.801
	c1.851,2.459,4.3,4.39,7.366,5.782c3.069,1.387,6.932,2.085,11.589,2.085c7.282,0,12.865-1.832,16.744-5.5
	c3.886-3.698,5.825-8.248,5.825-13.656C454.413,43.595,454.016,41.513,453.228,39.732 M393.165,39.934
	c0,9.227-3.699,12.548-6.808,13.729l14.193,3.475c3.472-4.614,4.431-10.223,4.431-13.936V7.586h-11.816V39.934z M340.355,42.404
	l11.247,2.752V7.586h-11.247V42.404z"/>
<path fill="#004259" d="M85.492,28.067l-3.855,0.72c-5.302,1.045-9.859,2.191-13.673,3.435c-3.815,1.248-6.833,2.59-9.056,4.038
	c-4.683,3.081-7.029,7.404-7.029,12.975c0,4.947,1.66,8.86,4.979,11.721c3.267,2.786,7.189,4.183,11.769,4.183
	c2.652,0,5.459-0.549,8.433-1.646c1.208-0.455,3.373-1.543,4.461-2.227c1.127-0.71,2.979-2.014,4.136-3.677l-0.017,6.063h11.085
	c0,0,0.013-15.998,0.013-17.149V29.537l-11.246-1.52V28.067z M85.492,40.72c0,1.469-0.165,2.877-0.498,4.215
	c-0.336,1.334-0.798,2.566-1.388,3.692c-0.591,1.122-1.339,2.142-2.249,3.053c-0.912,0.909-1.902,1.699-2.973,2.368
	c-1.123,0.672-2.247,1.18-3.374,1.527c-1.122,0.348-2.259,0.523-3.411,0.523c-1.233,0-2.547-0.306-3.936-0.924l0.042,0.041
	c-1.289-0.592-2.236-1.401-2.857-2.431c-0.612-1.028-0.922-2.151-0.922-3.356c0-2.38,1.114-4.429,3.334-6.139
	c1.207-0.939,3.238-1.932,6.103-2.973c2.866-1.047,6.492-2.117,10.882-3.214c0.191-0.051,0.396-0.102,0.626-0.141
	c0.225-0.04,0.432-0.092,0.62-0.146V40.72z M41.927,35.138c-0.589-0.406-1.171-0.786-1.747-1.153
	c-0.575-0.355-1.146-0.671-1.707-0.94c-0.591-0.294-1.581-0.666-2.973-1.101c-1.392-0.447-3.171-0.975-5.339-1.587h0.039
	l-3.212-0.926l-4.302-1.207c-2.513-0.744-4.35-1.567-5.499-2.446c-1.152-0.887-1.726-1.998-1.726-3.337
	c0-1.371,0.5-2.604,1.472-3.704L5.562,17.198c-0.833,1.901-1.264,3.9-1.264,6.012c0,6.61,3.786,11.294,11.364,14.054l6.265,1.925
	l3.012,0.965l4.62,1.406c3.935,1.178,5.904,3.148,5.904,5.904c0,2.088-1.02,3.908-3.053,5.459c-1.981,1.635-4.729,2.453-8.235,2.453
	c-3.906,0-6.636-0.671-8.189-2.01h0.04c-1.529-1.361-2.293-3-2.293-4.901v-1.321H2.489v1.321c0,3.351,0.936,6.281,2.811,8.802
	c1.849,2.459,4.305,4.39,7.372,5.781c3.062,1.388,6.927,2.089,11.586,2.089c7.28,0,12.863-1.835,16.747-5.503
	c3.881-3.698,5.825-8.248,5.825-13.657c0-2.38-0.399-4.465-1.188-6.245C44.852,37.951,43.62,36.422,41.927,35.138 M275.688,54.048
	c-1.124,0.672-2.252,1.18-3.375,1.527s-2.263,0.523-3.411,0.523c-1.235,0-2.547-0.306-3.941-0.924l0.047,0.041
	c-1.285-0.592-2.236-1.401-2.857-2.431c-0.174-0.289-0.263-0.602-0.387-0.905l-12.54-1.698c0.203,4.497,1.836,8.099,4.935,10.772
	c3.269,2.786,7.19,4.183,11.771,4.183c2.647,0,5.461-0.549,8.431-1.646c1.206-0.455,3.376-1.543,4.459-2.227
	c1.131-0.71,2.98-2.014,4.136-3.677l-0.013,6.063h11.083c0,0,0.005-3.541,0.009-7.402l-18.012-2.438
	C275.911,53.888,275.802,53.975,275.688,54.048 M312.488,58.748l-11.104-1.502v6.404h11.148v-4.874L312.488,58.748z M229.923,54.209
	c-1.395-0.747-2.399-1.898-3.016-3.453c-0.323-0.878-0.562-2.11-0.737-3.694l-11.524-1.559c0.137,4.951,0.875,8.676,2.222,11.159
	c1.527,2.755,3.71,4.857,6.547,6.306c2.836,1.441,6.053,2.169,9.64,2.169c1.178,0,2.687-0.158,4.536-0.469
	c1.854-0.305,4.052-0.781,6.628-1.42v-9.958c-4.5,1.389-7.563,2.086-9.199,2.086C233.016,55.376,231.313,54.99,229.923,54.209
	 M194.199,54.209c-1.394-0.747-2.398-1.898-3.015-3.453c-0.318-0.884-0.566-2.122-0.741-3.716c-0.15-1.358-0.218-3.01-0.241-4.847
	l-11.306-1.531v3.143c0,5.813,0.749,10.098,2.249,12.856c1.528,2.755,3.709,4.857,6.547,6.306c2.838,1.441,6.053,2.169,9.639,2.169
	c1.177,0,2.69-0.158,4.537-0.469c1.849-0.305,4.059-0.781,6.63-1.42v-9.958c-4.5,1.389-7.565,2.086-9.195,2.086
	C197.291,55.376,195.591,54.99,194.199,54.209 M127.171,49.775c-1.494,0-2.947,0.111-4.37,0.298
	c-4.389-0.079-5.125-1.567-5.001-3.415c0.099-1.527,2.142-3.008,6.36-3.008l-0.058-0.023c0.72,0.063,1.45,0.094,2.188,0.094
	c7.386,0,13.899-3.077,17.832-7.766l-12.572-1.699c-1.421,0.656-3.002,1.059-4.702,1.059c-2.811,0-5.348-1.029-7.237-2.679
	l-14.15-1.915c1.398,3.927,4.319,7.306,8.229,9.628c-0.826,0.319-5.895,2.448-5.895,6.914c0,4.86,3.844,6.452,3.844,6.452
	l0.031,0.018c-5.917,3.42-9.736,8.734-9.736,14.724c0,10.316,11.297,18.677,25.236,18.677c13.935,0,25.233-8.36,25.233-18.677
	C152.404,58.136,141.106,49.775,127.171,49.775 M127.813,78.637c-7.744,0-14.026-4.563-14.026-10.182
	c0-5.624,6.282-10.183,14.026-10.183c7.75,0,14.034,4.559,14.034,10.183C141.847,74.074,135.563,78.637,127.813,78.637
	 M158.623,63.65h11.249V39.439l-11.249-1.521V63.65z"/>
<path fill="#0083A5" d="M178.896,40.663l11.308,1.53c-0.007-0.318-0.02-0.586-0.02-0.915V17.345h10.41v-4.437l-21.698-5.305V40.663z
	 M158.622,37.918l11.249,1.521V7.587h-11.249V37.918z M94.331,13.325c-1.583-2.299-4.115-4.079-7.593-5.34h0.042
	C83.483,6.701,80.55,6.06,76.45,6.06c-4.091,0-7.052,0.668-10.535,2.008c-3.481,1.339-6.306,3.359-8.473,6.067h0.041
	c-2.063,2.565-3.115,5.129-3.214,7.679h12.049c0.1-1.665,0.946-3.144,2.615-4.429c1.842-1.499,3.681-2.251,7.159-2.251
	c2.943,0,4.635,0.618,6.591,1.849c1.876,1.125,2.812,3.105,2.812,5.944v5.091l11.244,1.521v-3.921
	c0-5.996-0.815-10.105-2.447-12.332L94.331,13.325z M25.864,6.096c-3.509,0-6.601,0.438-9.281,1.309
	c-2.673,0.869-4.937,2.131-6.786,3.797c-1.764,1.706-3.125,3.576-4.074,5.6c-0.06,0.128-0.105,0.265-0.162,0.396l11.372,1.54
	c0.277-0.316,0.58-0.623,0.935-0.913c1.714-1.314,4.232-1.967,7.551-1.967c1.31,0,2.511,0.104,3.598,0.321
	c1.084,0.216,2.013,0.519,2.789,0.925c0.779,0.394,1.372,0.879,1.787,1.442c0.415,0.563,0.622,1.207,0.622,1.929v1.377l11.288-0.011
	v-1.366c0-3.67-1.53-6.989-4.582-9.96C37.924,7.572,32.906,6.096,25.864,6.096 M104.538,25.581c0,1.792,0.344,3.509,0.926,5.14
	l14.147,1.916c-2.037-1.775-3.322-4.269-3.322-7.056c0-5.379,4.728-9.732,10.56-9.732c5.831,0,10.562,4.353,10.562,9.732
	c0,3.811-2.399,7.073-5.858,8.674l12.57,1.699c2.468-2.941,3.924-6.511,3.924-10.374c0-3.317-1.085-6.413-2.951-9.089h4.933V7.467
	L126.29,7.441C114.28,7.441,104.538,15.564,104.538,25.581 M361.06,52.156c2.502,6.461,8.354,12.916,21.113,12.916
	c6.5,0,11.18-1.693,14.57-4.19L361.06,52.156z M340.355,63.65h11.247V49.842l-11.247-2.751V63.65z M225.909,41.278V19.1
	l-11.288-2.76v27.467c0,0.584,0.011,1.142,0.027,1.696l11.522,1.56c0-0.009-0.003-0.018-0.003-0.022
	C225.992,45.449,225.909,43.528,225.909,41.278 M265.263,32.221c-3.813,1.248-6.832,2.591-9.057,4.037
	c-4.684,3.081-7.026,7.406-7.026,12.974c0,0.326,0.028,0.635,0.043,0.949l12.54,1.697c-0.318-0.774-0.533-1.583-0.533-2.448
	c0-2.382,1.107-4.429,3.332-6.141c1.203-0.938,3.241-1.93,6.104-2.972c2.862-1.046,6.492-2.116,10.884-3.214
	c0.189-0.05,0.396-0.1,0.619-0.142c0.231-0.039,0.437-0.09,0.625-0.144v3.901c0,1.47-0.167,2.877-0.497,4.216
	c-0.342,1.334-0.8,2.566-1.392,3.691c-0.591,1.124-1.336,2.145-2.246,3.055c-0.813,0.811-1.697,1.512-2.638,2.131l18.012,2.436
	c0.001-4.359,0.006-9.139,0.006-9.748V35.763l-22.145-5.417C269.484,30.946,267.268,31.569,265.263,32.221 M301.383,57.245
	l11.104,1.503l0.045,0.031V40.286l-11.148-2.724V57.245z"/>
</svg>
