<svg width="124" height="24" viewBox="0 0 124 24" fill="none" xmlns="http://www.w3.org/2000/svg">
<g clip-path="url(#clip0_4023_468)">
<path d="M11.44 17.52C12.38 17.4 13.28 17.11 14.1 16.65C16.13 15.51 17.29 13.58 17.39 11.18V10.96H20.22C20.05 9.53 19.49 8.23 18.7 7.11L15.82 8.95C16.69 10.33 16.81 11.83 16.13 13.35C15.36 15.19 13.52 16.76 11.44 17.51M20.27 11.39H17.83C17.66 13.81 16.4 15.87 14.32 17C13.13 17.65 11.78 17.99 10.4 17.99C9.34 17.99 8.25 17.8 7.21 17.41C8.47 18.18 9.87 18.62 11.32 18.62H11.34C13.95 18.62 16.32 17.24 17.65 14.89L17.77 14.7L19.39 15.74C19.97 14.6 20.29 13.34 20.29 11.99C20.29 11.8 20.27 11.6 20.27 11.39ZM11.34 19.06C8.7 19.06 6.24 17.75 4.49 15.53C5.82 18.34 8.68 20.3 11.99 20.3C15.06 20.3 17.75 18.63 19.18 16.14L17.9 15.34C16.47 17.66 14.05 19.07 11.34 19.07M11.99 20.74C7.18 20.74 3.26 16.84 3.26 12.01C3.26 7.18 7.16 3.27 12 3.27C16.84 3.27 20.73 7.17 20.73 12C20.73 16.83 16.81 20.73 12 20.73M12 0C5.37 0 0 5.37 0 12C0 18.63 5.37 24 12 24C18.63 24 24 18.63 24 12C24 5.37 18.63 0 12 0Z" fill="#EB001A"/>
</g>
<path d="M38.32 9.12592C38.068 8.81392 37.744 8.56192 37.348 8.36992C36.952 8.17792 36.556 8.09392 36.184 8.09392C35.992 8.09392 35.8 8.10592 35.596 8.14192C35.392 8.17792 35.224 8.23792 35.056 8.33392C34.888 8.42992 34.768 8.54992 34.66 8.70592C34.552 8.86192 34.504 9.05392 34.504 9.29392C34.504 9.49792 34.552 9.66592 34.636 9.79792C34.72 9.92992 34.84 10.0499 35.008 10.1579C35.176 10.2539 35.368 10.3499 35.596 10.4339C35.824 10.5179 36.076 10.6019 36.364 10.6979C36.772 10.8299 37.192 10.9859 37.636 11.1539C38.08 11.3219 38.476 11.5379 38.836 11.8019C39.196 12.0779 39.496 12.4139 39.736 12.8099C39.976 13.2059 40.096 13.7099 40.096 14.3099C40.096 14.9939 39.964 15.5939 39.712 16.0979C39.46 16.6019 39.112 17.0099 38.692 17.3459C38.26 17.6699 37.768 17.9219 37.216 18.0779C36.664 18.2339 36.088 18.3179 35.5 18.3179C34.636 18.3179 33.808 18.1739 33.004 17.8739C32.2 17.5739 31.54 17.1539 31 16.5899L32.896 14.6579C33.184 15.0179 33.58 15.3179 34.06 15.5699C34.54 15.8219 35.02 15.9299 35.488 15.9299C35.704 15.9299 35.908 15.9059 36.112 15.8579C36.316 15.8099 36.496 15.7379 36.64 15.6419C36.784 15.5459 36.916 15.4019 37 15.2339C37.096 15.0659 37.132 14.8619 37.132 14.6219C37.132 14.3939 37.072 14.2019 36.964 14.0459C36.856 13.8899 36.688 13.7459 36.484 13.6139C36.28 13.4819 36.016 13.3619 35.704 13.2539C35.392 13.1459 35.044 13.0259 34.648 12.9059C34.264 12.7859 33.892 12.6299 33.52 12.4619C33.148 12.2939 32.824 12.0779 32.536 11.8139C32.248 11.5499 32.02 11.2259 31.84 10.8419C31.66 10.4579 31.576 10.0019 31.576 9.46192C31.576 8.80192 31.708 8.22592 31.984 7.74592C32.26 7.26592 32.608 6.88192 33.052 6.58192C33.496 6.28192 33.988 6.05392 34.54 5.90992C35.092 5.76592 35.656 5.69392 36.22 5.69392C36.892 5.69392 37.588 5.81392 38.296 6.06592C39.004 6.31792 39.616 6.67792 40.156 7.16992L38.308 9.11392L38.32 9.12592ZM43.444 18.0059V6.00592H46.36V18.0059H43.444ZM55.408 8.47792V18.0059H52.504V8.47792H49.12V6.00592H58.792V8.47792H55.396H55.408ZM61.564 18.0059V6.00592H69.628V8.44192H64.36V10.7099H69.34V13.0259H64.36V15.5219H69.94V17.9939H61.564V18.0059ZM81.892 17.7899C81.112 18.1499 80.212 18.3299 79.192 18.3299C78.268 18.3299 77.404 18.1739 76.624 17.8739C75.844 17.5739 75.16 17.1419 74.584 16.5779C74.008 16.0139 73.552 15.3539 73.228 14.5739C72.904 13.7939 72.736 12.9299 72.736 11.9939C72.736 11.0579 72.904 10.1579 73.24 9.38992C73.576 8.62192 74.032 7.94992 74.62 7.39792C75.208 6.84592 75.892 6.42592 76.684 6.13792C77.476 5.84992 78.328 5.69392 79.24 5.69392C80.092 5.69392 80.92 5.83792 81.736 6.13792C82.552 6.43792 83.224 6.88192 83.728 7.44592L81.76 9.41392C81.484 9.04192 81.136 8.76592 80.692 8.58592C80.248 8.40592 79.804 8.30992 79.336 8.30992C78.832 8.30992 78.364 8.40592 77.932 8.58592C77.512 8.77792 77.14 9.02992 76.84 9.35392C76.54 9.67792 76.3 10.0739 76.132 10.5179C75.964 10.9619 75.88 11.4539 75.88 11.9819C75.88 12.5099 75.964 13.0259 76.132 13.4699C76.3 13.9259 76.54 14.3099 76.84 14.6339C77.14 14.9579 77.5 15.2099 77.92 15.3899C78.34 15.5699 78.796 15.6659 79.288 15.6659C79.864 15.6659 80.368 15.5579 80.8 15.3299C81.232 15.1019 81.58 14.8139 81.832 14.4539L83.848 16.3499C83.32 16.9619 82.66 17.4419 81.88 17.8019L81.892 17.7899ZM98.836 11.9459C98.836 12.8939 98.668 13.7579 98.344 14.5499C98.02 15.3299 97.564 16.0019 96.976 16.5659C96.388 17.1299 95.704 17.5619 94.9 17.8619C94.096 18.1619 93.232 18.3179 92.284 18.3179C91.336 18.3179 90.484 18.1619 89.68 17.8619C88.888 17.5619 88.192 17.1299 87.616 16.5659C87.028 16.0019 86.584 15.3299 86.248 14.5499C85.924 13.7699 85.756 12.8939 85.756 11.9459C85.756 10.9979 85.924 10.1219 86.248 9.34192C86.572 8.57392 87.028 7.91392 87.616 7.36192C88.192 6.82192 88.888 6.40192 89.68 6.11392C90.472 5.82592 91.348 5.66992 92.284 5.66992C93.22 5.66992 94.096 5.81392 94.9 6.11392C95.704 6.41392 96.4 6.82192 96.976 7.36192C97.552 7.90192 98.008 8.56192 98.344 9.34192C98.668 10.1219 98.836 10.9859 98.836 11.9459ZM95.74 11.9459C95.74 11.4299 95.656 10.9379 95.488 10.4939C95.32 10.0379 95.08 9.65392 94.78 9.32992C94.48 9.00592 94.12 8.75392 93.7 8.56192C93.28 8.36992 92.812 8.28592 92.296 8.28592C91.78 8.28592 91.324 8.38192 90.904 8.56192C90.484 8.75392 90.124 9.00592 89.824 9.32992C89.524 9.65392 89.284 10.0379 89.116 10.4939C88.948 10.9499 88.876 11.4299 88.876 11.9459C88.876 12.4619 88.96 12.9899 89.128 13.4459C89.296 13.9019 89.536 14.2979 89.836 14.6219C90.136 14.9459 90.496 15.2099 90.916 15.3899C91.336 15.5819 91.792 15.6659 92.308 15.6659C92.824 15.6659 93.28 15.5699 93.7 15.3899C94.12 15.1979 94.48 14.9459 94.78 14.6219C95.08 14.2979 95.32 13.9019 95.488 13.4459C95.656 12.9899 95.74 12.4859 95.74 11.9459ZM108.616 17.9939L106.012 13.2299H105.028V17.9939H102.196V6.00592H106.768C107.344 6.00592 107.908 6.06592 108.46 6.18592C109.012 6.30592 109.504 6.50992 109.936 6.78592C110.368 7.07392 110.716 7.44592 110.98 7.90192C111.244 8.36992 111.364 8.94592 111.364 9.62992C111.364 10.4459 111.148 11.1299 110.704 11.6819C110.26 12.2339 109.648 12.6299 108.868 12.8699L112 18.0059H108.616V17.9939ZM108.496 9.66592C108.496 9.38992 108.436 9.14992 108.316 8.98192C108.196 8.80192 108.04 8.66992 107.86 8.57392C107.68 8.47792 107.464 8.41792 107.236 8.38192C107.008 8.34592 106.78 8.33392 106.564 8.33392H105.016V11.1299H106.396C106.636 11.1299 106.876 11.1059 107.128 11.0699C107.38 11.0339 107.608 10.9619 107.812 10.8539C108.016 10.7459 108.184 10.6019 108.316 10.4099C108.448 10.2179 108.508 9.96592 108.508 9.66592H108.496ZM114.868 17.9939V6.00592H122.932V8.44192H117.664V10.7099H122.644V13.0259H117.664V15.5219H123.244V17.9939H114.868Z" fill="#1E1C22"/>
<defs>
<clipPath id="clip0_4023_468">
<rect width="24" height="24" fill="white"/>
</clipPath>
</defs>
</svg>
