<?xml version="1.0" encoding="UTF-8"?>
<!DOCTYPE svg PUBLIC "-//W3C//DTD SVG 1.1//EN" "http://www.w3.org/Graphics/SVG/1.1/DTD/svg11.dtd">
<!-- Creator: CorelDRAW X7 -->
<svg xmlns="http://www.w3.org/2000/svg" xml:space="preserve" width="100%" height="100%" version="1.1" style="shape-rendering:geometricPrecision; text-rendering:geometricPrecision; image-rendering:optimizeQuality; fill-rule:evenodd; clip-rule:evenodd"
viewBox="0 0 1480000 444780"
 xmlns:xlink="http://www.w3.org/1999/xlink">
 <defs>
  <style type="text/css">
   <![CDATA[
    .fil0 {fill:black;fill-rule:nonzero}
   ]]>
  </style>
 </defs>
 <g id="Layer_x0020_1">
  <metadata id="CorelCorpID_0Corel-Layer"/>
  <g id="_519255888">
   <path class="fil0" d="M207661 213016c-16577,-6469 -30894,-12053 -30894,-24942 0,-14902 13569,-20215 26266,-20215 21968,0 33637,12141 33750,12264l1122 1192 9837 -16489 -605 -674c-567,-635 -14185,-15538 -43552,-15538 -23376,0 -48539,12348 -48539,39460 0,25637 23159,34808 43591,42897 16601,6573 30938,12249 30938,25030 0,14346 -13332,20766 -26542,20766 -24965,0 -40188,-16212 -40342,-16374l-1003 -1093 -11678 15465 664 752c187,212 4633,5229 13303,10295 7971,4653 21175,10206 38780,10206 28128,0 48544,-16828 48544,-40017 0,-25961 -23183,-35004 -43640,-42985z"/>
   <path class="fil0" d="M348110 148612c-41716,0 -74386,32071 -74386,73017 0,41710 32670,74386 74386,74386 41715,0 74391,-32676 74391,-74386 0,-40946 -32676,-73017 -74391,-73017zm52665 73017c0,30919 -23131,55137 -52665,55137 -29535,0 -52665,-24218 -52665,-55137 0,-29998 23130,-53491 52665,-53491 29534,0 52665,23493 52665,53491z"/>
   <path class="fil0" d="M514513 96459c-137,-25 -3461,-566 -8718,-566 -14740,0 -49027,5126 -49027,52595l0 5358 -18841 0 0 18127 18841 0 0 120848 21152 0 0 -120848 35427 0 0 -18127 -35427 0 0 -5358c0,-12460 3868,-33370 29800,-33370 3657,0 6322,522 6351,528l1476 290 0 -19305 -1034 -172z"/>
   <path class="fil0" d="M614360 275665l-1531 335c-25,5 -2456,531 -6168,531 -11353,0 -30402,-4676 -30402,-35999l0 -68163 35300 0 0 -18491 -35300 0 0 -40623 -21288 0 0 40623 -18773 0 0 18491 18493 0 0 70123c0,46678 31504,53649 50285,53649 5097,0 8223,-556 8350,-581l1034 -187 0 -19708z"/>
  </g>
  <g id="_519260016">
   <path class="fil0" d="M657382 250864c0,0 15460,15459 38373,15459 9935,0 18491,-4417 18491,-12697 0,-20984 -68459,-18223 -68459,-63491 0,-26222 23466,-41406 53828,-41406 31745,0 47204,16011 47204,16011l-12973 25946c0,0 -12978,-12146 -34507,-12146 -9108,0 -17941,3865 -17941,12697 0,19875 68459,17394 68459,62664 0,23459 -20427,42233 -53827,42233 -35059,0 -54658,-20704 -54658,-20704l16010 -24566z"/>
   <path class="fil0" d="M844330 148728c40578,0 62382,29535 62382,66805 0,4135 -826,13523 -826,13523l-97167 0c2210,24568 21259,37265 42237,37265 22632,0 40578,-15459 40578,-15459l13524 25119c0,0 -21529,20151 -56588,20151 -46654,0 -75637,-33675 -75637,-73702 0,-43334 29540,-73702 71497,-73702zm27053 56313c-557,-19048 -12426,-29260 -27881,-29260 -17940,0 -30366,11039 -33675,29260l61556 0z"/>
   <path class="fil0" d="M942002 152043l33676 0 0 24291c0,5243 -552,9935 -552,9935l552 0c6351,-20151 23189,-36162 44718,-36162 3313,0 6352,557 6352,557l0 34503c0,0 -3590,-552 -8282,-552 -14907,0 -31745,8557 -38371,29535 -2207,6903 -3033,14631 -3033,22913l0 55756 -35060 0 0 -140776z"/>
   <path class="fil0" d="M1042014 152043l36988 0 29260 87225c2762,8281 4692,17640 4973,17640l551 0c276,0 2206,-9359 4968,-17640l29258 -87225 36990 0 -50513 140776 -41411 0 -51064 -140776z"/>
   <path class="fil0" d="M1265141 148728c40578,0 62388,29535 62388,66805 0,4135 -832,13523 -832,13523l-97166 0c2209,24568 21258,37265 42236,37265 22634,0 40578,-15459 40578,-15459l13525 25119c0,0 -21534,20151 -56588,20151 -46649,0 -75637,-33675 -75637,-73702 0,-43334 29539,-73702 71496,-73702zm27053 56313c-551,-19048 -12426,-29260 -27881,-29260 -17940,0 -30366,11039 -33675,29260l61556 0z"/>
  </g>
 </g>
</svg>
