<svg viewBox="0 0 340 69.6" xmlns='http://www.w3.org/2000/svg'>
<g>
<path d="M32.25,68.24H18.3L0,17.7H14.85L25.35,55h.3L36.44,17.7H50.69Z"></path>
<path d="M94.94,58.34c0,6,1.35,7.35,3,8v1.95H83.54a22.12,22.12,0,0,1-1.35-6,20.56,20.56,0,0,1-16.35,7.35c-7.65,0-15.45-4.2-15.45-14.7s6.3-15,14.7-16.2l12.15-1.8c2.1-.3,4.65-1.2,4.65-4C81.89,27.3,76.49,27,73,27c-6.6,0-7.8,4.05-8.1,7H52c1.5-15.44,12.3-17.69,22.65-17.69,7.2,0,20.25,2.25,20.25,14.7Zm-13-14.7c-1.35,1-3.6,2-9.15,2.7s-9,2.1-9,7.65a5.85,5.85,0,0,0,5.53,6.15h.62c6,0,12-3.9,12-10Z"></path>
<path d="M116.38,68.24H103V0h13.35Z"></path>
<path d="M141.73,17.7h8.4v9.45h-8.4V54.74c0,2.85.15,4,5.55,4h2.85V68.84H142c-11.55,0-13.65-4.35-13.65-11V27.15h-6.9V17.7h6.9V4.05h13.35Z"></path>
<path d="M202.32,53.39c-3.6,12.3-13.8,16.2-22.5,16.2-14.24,0-25.19-6.75-25.19-27.6,0-6.15,2.1-25.64,24.29-25.64,10.05,0,23.85,4.8,23.85,27.89v2.4H168c.3,3.75,1.2,12.3,11.84,12.3,3.75,0,7.65-1.8,8.7-5.55Zm-13.2-15.45c-.75-8.09-6.15-10.64-10.35-10.64s-9.59,4.05-10.49,10.64Z"></path>
<path d="M253,49.79c-.45,5.25-4.5,19.8-23.09,19.8S206.37,55,206.37,44.39c0-16.34,7.2-28,24.3-28,8.09,0,21.29,3.6,22.49,19.34h-13.5c-.6-3.14-2.54-8.09-8.24-8.09h-.75c-8.4,0-10.5,8.39-10.5,14.69s.15,16.35,10.2,16.35c6.9,0,9.14-6.45,9.14-8.85Z"></path>
<path d="M305.06,68.24H291.71V37.64c0-3.74-.3-10-8.7-10-6,0-10.5,4-10.5,11.69V68.24H259.16V0h13.35V24.3h.15c1.65-4.2,7.5-7.95,14.7-7.95,9.9,0,17.7,5.85,17.7,16.95Z"></path>
<rect x="313.3" y="58.79" width="26.7" height="9.52"></rect>
</g>
</svg>