<svg class="svg-icon" viewBox="0 0 1024 1024" version="1.1" xmlns="http://www.w3.org/2000/svg"><path d="M810.666667 810.666667v-85.333334h85.333333v85.333334h85.333333v85.333333h-85.333333v85.333333h-85.333333v-85.333333h-85.333334v-85.333333h85.333334zM170.666667 341.333333h682.666666V213.333333h-85.333333v42.666667h-85.333333V213.333333H341.333333v42.666667H256V213.333333H170.666667v128z m0 85.333334v426.666666h426.666666v85.333334H170.666667a85.333333 85.333333 0 0 1-85.333334-85.333334V213.333333a85.333333 85.333333 0 0 1 85.333334-85.333333h85.333333V85.333333h85.333333v42.666667h341.333334V85.333333h85.333333v42.666667h85.333333a85.333333 85.333333 0 0 1 85.333334 85.333333v384h-85.333334v-170.666666H170.666667z"  /></svg>